<?xml version="1.0" standalone="no"?>
<!DOCTYPE svg PUBLIC "-//W3C//DTD SVG 20010904//EN"
 "http://www.w3.org/TR/2001/REC-SVG-20010904/DTD/svg10.dtd">
<svg version="1.0" xmlns="http://www.w3.org/2000/svg"
 width="1809.941885pt" height="773.365705pt" viewBox="0 0 1809.941885 773.365705"
 preserveAspectRatio="xMidYMid meet">
<metadata>
Created by potrace 1.12, written by Peter Selinger 2001-2015
</metadata>
<g transform="translate(-98.035550,1091.943939) scale(0.100000,-0.100000)"
fill="#000000" stroke="none">
<path d="M2790 10904 c-105 -48 -131 -61 -192 -100 -212 -136 -456 -405 -574
-635 -16 -30 -31 -56 -34 -59 -12 -10 -91 -170 -126 -255 -6 -16 -19 -47 -28
-68 -9 -21 -16 -46 -16 -55 0 -10 -7 -27 -15 -38 -8 -10 -15 -31 -15 -45 0
-14 -7 -34 -15 -45 -8 -10 -15 -28 -15 -39 0 -11 -6 -32 -14 -46 -7 -14 -16
-43 -20 -65 -5 -21 -11 -43 -16 -49 -5 -5 -13 -35 -20 -65 -31 -146 -39 -190
-50 -250 -6 -36 -18 -96 -26 -135 -9 -38 -14 -97 -12 -130 3 -57 4 -60 33 -67
110 -26 275 -72 286 -78 30 -19 32 -275 3 -374 -8 -27 -14 -63 -14 -78 0 -50
-63 -240 -101 -308 -5 -8 -14 -26 -20 -40 -5 -13 -13 -27 -17 -30 -4 -3 -20
-25 -36 -50 -16 -24 -76 -91 -132 -148 -121 -120 -128 -130 -108 -157 36 -50
142 -148 181 -167 44 -22 52 -41 33 -76 -5 -9 -21 -46 -36 -82 -14 -36 -44
-103 -66 -148 l-40 -84 38 -55 c21 -30 63 -77 95 -104 l57 -50 -1 -168 c0
-140 3 -172 17 -192 9 -13 16 -34 16 -47 0 -13 7 -36 15 -52 12 -24 15 -92 17
-399 1 -329 -1 -372 -15 -395 -10 -14 -17 -35 -17 -46 0 -24 -27 -65 -85 -128
l-40 -44 0 -91 c-1 -87 -18 -185 -51 -282 -8 -23 -14 -52 -14 -66 0 -14 -7
-34 -15 -45 -8 -10 -15 -35 -15 -55 0 -20 -7 -42 -15 -49 -8 -7 -15 -24 -15
-39 0 -14 -7 -39 -15 -55 -8 -15 -15 -33 -15 -40 -1 -6 -9 -29 -20 -51 -11
-22 -19 -47 -20 -56 0 -9 -3 -19 -6 -22 -11 -10 -54 -120 -54 -137 0 -8 -7
-24 -15 -34 -8 -11 -15 -28 -15 -37 0 -10 -7 -31 -15 -48 -8 -17 -22 -45 -30
-62 -8 -17 -15 -37 -15 -45 0 -12 -21 -61 -51 -116 -5 -10 -9 -26 -9 -37 0
-11 -7 -26 -15 -35 -20 -19 -85 -145 -85 -163 0 -7 -7 -16 -15 -19 -8 -4 -15
-17 -15 -29 0 -13 -4 -26 -9 -29 -9 -6 -22 -31 -79 -156 -70 -153 -76 -176
-40 -164 12 3 27 12 33 18 7 6 31 28 53 49 23 20 56 64 73 96 17 33 52 81 78
108 82 84 331 431 331 461 0 7 4 12 10 12 5 0 22 21 37 48 15 26 30 49 33 52
4 3 27 38 51 78 24 41 53 88 64 106 104 169 185 305 185 311 0 4 14 27 30 52
17 24 30 50 30 57 0 7 7 21 15 32 8 10 15 33 15 49 0 17 7 41 15 55 8 14 14
40 15 58 0 18 7 49 15 69 8 19 15 50 15 68 0 18 9 61 20 95 11 34 20 70 20 79
0 9 4 21 9 26 9 9 15 28 40 130 33 134 41 178 41 214 0 45 8 49 50 24 39 -22
56 -7 65 57 7 54 37 101 119 191 28 30 79 89 113 130 34 40 78 92 98 114 48
52 70 77 135 154 30 36 69 79 85 97 17 17 39 42 50 55 39 45 230 264 245 280
79 86 115 119 128 119 9 0 33 -16 53 -36 42 -41 51 -40 98 20 32 40 48 52 111
81 66 31 162 -4 203 -74 21 -36 22 -104 2 -121 -21 -17 -19 -27 10 -52 l25
-22 0 -213 c0 -205 -7 -285 -35 -423 -8 -36 -17 -85 -20 -110 -4 -25 -13 -67
-21 -94 -8 -27 -14 -64 -14 -82 0 -18 -4 -36 -10 -39 -12 -7 -14 -65 -2 -65 9
0 35 47 63 115 4 11 16 40 27 65 10 25 27 65 36 90 26 63 47 112 58 130 4 8
11 22 14 30 3 8 12 28 20 43 7 16 14 34 14 40 1 7 9 30 20 52 11 22 19 47 20
55 0 9 5 21 11 27 17 17 40 297 33 413 -3 58 -2 110 3 116 4 6 53 32 108 59
55 26 149 71 209 101 60 30 115 54 122 54 26 0 37 -47 42 -168 4 -99 2 -129
-11 -155 -25 -51 -47 -132 -47 -174 0 -29 7 -45 28 -65 108 -104 122 -122 122
-149 0 -55 -87 -109 -175 -109 -58 0 -118 -24 -151 -61 -17 -18 -18 -36 -16
-150 2 -81 8 -144 17 -170 8 -23 15 -65 15 -93 1 -28 7 -62 15 -76 8 -14 15
-41 15 -60 0 -19 7 -46 15 -60 8 -14 15 -47 15 -75 0 -27 7 -61 15 -75 8 -14
14 -33 15 -43 0 -23 19 -65 132 -297 49 -102 95 -198 102 -215 7 -16 39 -82
70 -145 55 -111 69 -137 88 -170 4 -8 11 -22 14 -30 48 -123 80 -147 68 -53
-4 32 -13 72 -20 90 -8 18 -14 45 -14 60 0 15 -7 37 -15 47 -8 11 -15 38 -15
60 0 23 -7 50 -15 60 -8 11 -15 37 -15 58 0 21 -6 49 -14 61 -7 12 -17 59 -20
104 -4 46 -11 94 -16 109 -6 14 -10 58 -11 97 0 40 -4 95 -10 122 -14 78 -40
348 -46 481 l-5 121 32 23 c17 12 68 39 113 59 118 52 111 43 104 126 -6 69
-5 75 23 113 16 22 37 43 48 46 32 11 48 51 34 90 -7 18 -12 43 -12 57 -1 13
-7 35 -15 49 -8 14 -15 53 -15 90 -1 36 -5 85 -11 110 -6 25 -14 104 -20 175
-5 72 -14 143 -19 159 -22 64 -7 91 78 138 51 27 64 35 117 69 22 14 74 44
115 65 41 22 94 52 117 67 24 15 44 27 47 27 8 0 46 -81 46 -100 0 -11 6 -34
14 -52 7 -18 21 -58 29 -88 9 -30 23 -78 31 -107 9 -28 16 -57 16 -63 0 -7 7
-27 16 -46 20 -42 14 -128 -15 -208 -25 -70 -26 -106 -6 -146 17 -32 48 -44
150 -56 89 -10 95 -15 81 -63 -6 -22 -15 -43 -19 -47 -16 -16 -5 -61 23 -98
31 -41 32 -51 6 -111 -32 -72 -65 -184 -77 -260 -5 -33 -14 -73 -19 -89 -6
-16 -10 -47 -10 -70 0 -23 -5 -59 -11 -81 -6 -22 -15 -73 -19 -113 -5 -40 -13
-79 -18 -85 -5 -7 -13 -43 -17 -82 -4 -38 -11 -78 -16 -87 -5 -9 -12 -45 -15
-80 -4 -35 -11 -68 -16 -75 -5 -6 -12 -38 -14 -70 -3 -32 -12 -85 -20 -118
-16 -63 -16 -164 1 -168 5 -1 12 13 16 30 3 18 11 39 17 45 5 7 13 28 17 46 4
18 13 45 21 60 8 15 14 32 14 39 0 6 6 24 14 40 8 15 21 44 29 63 8 19 22 51
30 70 8 19 23 55 32 80 9 25 23 59 30 75 7 17 20 50 30 75 9 25 26 63 36 86
10 23 19 46 19 53 0 6 4 11 9 11 5 0 13 10 16 23 7 23 32 82 47 107 4 8 11 22
14 30 26 65 135 287 194 395 27 50 54 99 60 110 5 11 14 27 19 35 5 8 27 44
47 80 21 36 42 70 46 75 53 69 108 145 108 150 0 3 9 19 21 34 16 22 19 36 14
60 -5 26 -13 32 -48 42 -35 9 -65 7 -187 -15 -148 -27 -235 -33 -244 -17 -3 5
4 35 15 67 14 41 21 87 22 149 3 126 -15 180 -151 465 -59 124 -102 220 -102
228 1 18 51 55 324 239 43 29 130 78 193 109 62 32 112 62 110 68 -2 5 -26 16
-53 23 -54 14 -163 5 -261 -23 -243 -66 -307 -86 -335 -100 -57 -30 -91 -9
-103 63 -4 24 -11 45 -16 49 -5 3 -9 16 -9 29 0 13 -14 64 -31 112 -17 48 -34
113 -39 143 -4 30 -13 68 -19 83 -6 16 -11 48 -11 73 0 25 -7 61 -16 82 -12
27 -16 73 -17 169 l-2 132 90 91 c49 49 95 90 102 90 18 0 93 41 93 50 0 5
-22 27 -50 51 -27 23 -50 48 -50 53 0 6 22 45 48 86 59 92 75 121 102 185 11
28 24 57 29 65 5 9 12 36 16 60 4 25 12 51 18 58 6 7 14 52 18 100 4 48 12
107 18 132 13 58 13 167 0 255 -6 39 -14 90 -17 115 -5 30 -12 45 -22 45 -11
0 -17 -17 -21 -70 -4 -38 -12 -86 -18 -105 -6 -19 -11 -48 -11 -65 0 -16 -7
-39 -15 -49 -8 -11 -15 -28 -15 -38 0 -33 -79 -201 -129 -273 -84 -121 -283
-315 -401 -392 -30 -19 -66 -43 -80 -53 -14 -10 -57 -34 -95 -55 -91 -48 -102
-53 -122 -64 -16 -7 -18 -24 -18 -115 0 -77 -4 -109 -14 -115 -7 -5 -74 -11
-149 -15 -75 -4 -158 -12 -185 -17 -28 -5 -79 -9 -114 -9 -81 0 -87 -12 -35
-82 49 -65 122 -201 122 -226 0 -10 7 -27 15 -38 11 -15 14 -56 14 -199 0 -99
-4 -200 -10 -225 -6 -25 -14 -101 -18 -170 -4 -69 -13 -141 -19 -160 -5 -19
-13 -84 -16 -143 -3 -59 -10 -117 -16 -127 -5 -10 -10 -43 -11 -72 -1 -69 -4
-76 -69 -132 -60 -52 -175 -155 -255 -227 -69 -62 -104 -83 -110 -67 -3 7 -9
65 -15 128 -13 147 -35 295 -49 340 -6 19 -11 47 -11 61 0 15 -7 40 -15 55 -8
16 -15 43 -15 59 0 17 -7 39 -15 49 -8 11 -15 31 -15 45 0 14 -7 35 -15 45 -8
11 -15 28 -15 39 0 56 -135 286 -192 325 -20 15 -21 14 -14 -14 18 -81 18 -98
1 -152 -23 -76 -77 -183 -128 -255 -69 -96 -204 -268 -263 -334 -53 -60 -58
-63 -102 -63 -38 0 -55 6 -84 30 -42 34 -80 44 -123 32 -37 -10 -40 -41 -6
-58 36 -18 41 -34 35 -99 -13 -114 -61 -188 -204 -315 -34 -30 -77 -68 -94
-85 -123 -116 -197 -176 -213 -173 -14 2 -20 17 -25 57 -3 29 -11 58 -17 64
-6 6 -11 29 -11 52 -1 22 -7 58 -15 80 -8 22 -18 72 -21 112 -6 61 -4 77 15
113 35 67 30 83 -34 110 -40 17 -57 30 -62 48 -3 13 -1 27 4 31 6 3 15 16 22
28 6 13 24 26 39 29 15 4 36 13 47 20 11 8 34 14 53 14 42 0 50 20 28 79 -9
25 -16 57 -16 71 0 32 -51 89 -110 123 -46 26 -80 70 -80 104 0 10 -7 27 -15
37 -10 13 -15 43 -15 81 0 34 -5 66 -11 72 -8 8 -8 17 0 31 6 12 11 74 11 145
0 79 5 139 14 168 8 24 17 55 20 70 8 36 58 107 92 130 16 10 41 19 57 19 23
0 27 4 27 28 0 30 -58 92 -132 142 -48 32 -51 42 -34 98 8 26 25 81 37 122 13
41 29 86 36 100 7 14 13 31 13 38 0 6 4 12 9 12 5 0 12 12 16 27 3 15 10 30
13 33 4 3 19 23 34 45 15 22 52 64 83 94 59 58 61 61 43 94 -7 12 -14 40 -17
62 -7 49 -21 52 -138 35 -64 -9 -95 -9 -135 0 -123 27 -164 68 -155 156 7 77
27 176 43 211 8 17 14 42 14 56 0 13 7 30 15 37 8 7 15 23 15 35 0 12 7 28 15
35 8 7 15 21 15 30 0 16 13 48 42 100 4 8 14 29 21 45 38 83 73 151 84 163 7
7 13 19 13 27 0 7 3 15 8 17 9 4 52 65 52 74 0 3 14 23 30 44 17 21 30 41 30
45 0 22 227 288 302 354 21 18 38 40 38 47 0 19 -46 18 -90 -2z m2190 -2233
c5 -11 10 -29 10 -41 0 -12 7 -36 16 -53 9 -18 20 -39 24 -47 4 -8 20 -22 37
-30 26 -13 29 -18 22 -38 -5 -12 -19 -33 -32 -45 -33 -32 -93 -109 -100 -130
-5 -12 2 -25 20 -40 86 -71 83 -64 83 -194 0 -114 13 -265 26 -309 5 -20 -6
-28 -103 -75 -59 -29 -112 -59 -116 -66 -4 -7 -12 -13 -18 -13 -5 0 -27 -11
-49 -25 -56 -35 -71 -33 -63 8 3 17 12 44 19 59 8 15 14 42 14 60 0 19 8 45
17 58 16 23 18 59 18 397 l0 372 45 55 c25 30 56 68 69 85 27 36 46 39 61 12z"/>
<path d="M3997 10880 c-4 -14 -14 -79 -22 -145 -23 -177 -50 -325 -102 -555
-40 -179 -46 -220 -47 -325 -1 -176 36 -299 108 -363 83 -73 163 -17 219 151
16 50 20 89 21 202 0 119 -4 157 -27 255 -47 194 -95 448 -120 631 -15 107
-27 164 -30 149z"/>
<path d="M14455 10433 c-10 -26 -23 -61 -31 -78 -27 -61 -54 -204 -54 -285 0
-75 30 -243 49 -280 5 -9 12 -31 16 -50 4 -19 14 -45 22 -57 8 -12 13 -34 11
-50 -3 -25 -8 -29 -50 -36 -45 -7 -91 -2 -198 22 -54 12 -117 14 -124 3 -2 -4
18 -32 46 -62 89 -97 122 -163 140 -280 17 -119 20 -194 9 -260 -10 -65 -25
-196 -41 -362 -5 -48 -14 -97 -20 -109 -8 -13 -16 -108 -21 -243 -4 -122 -13
-243 -18 -271 -5 -27 -10 -151 -11 -275 0 -169 -4 -235 -15 -265 -8 -22 -14
-56 -15 -75 0 -19 -7 -54 -15 -77 -11 -33 -12 -57 -4 -120 12 -96 12 -115 -2
-178 -15 -66 -17 -69 -62 -137 -21 -30 -15 -68 10 -68 28 0 80 -39 91 -68 5
-15 18 -82 28 -149 17 -121 17 -123 -3 -195 -27 -93 -45 -142 -62 -161 -27
-33 -10 -52 54 -58 174 -19 233 -115 276 -454 5 -44 15 -98 21 -120 15 -57 23
-960 9 -1062 -6 -43 -18 -118 -26 -168 -9 -49 -20 -130 -26 -180 -5 -49 -13
-113 -17 -142 -7 -43 -6 -53 7 -58 16 -6 41 19 41 41 0 7 8 27 17 46 9 18 22
45 30 60 7 14 13 34 13 45 0 10 7 27 15 37 8 11 15 27 15 37 0 9 7 22 15 29 8
7 15 20 15 30 0 10 16 50 35 89 19 39 35 73 35 76 0 21 282 586 303 608 10 10
25 34 33 53 8 19 19 34 24 34 6 0 10 5 10 10 0 6 14 30 30 53 17 23 47 65 68
94 83 115 185 209 302 278 36 21 81 52 100 69 20 17 57 49 84 71 27 22 77 74
113 115 35 41 76 89 91 105 35 36 112 141 130 174 18 34 8 55 -21 46 -38 -12
-121 -27 -156 -28 -26 0 -40 6 -58 29 -19 25 -23 40 -23 105 0 43 7 95 15 120
22 62 30 178 16 233 -14 58 -3 82 41 91 18 4 42 14 53 21 11 8 27 14 37 14 21
0 181 157 173 170 -3 5 -43 28 -88 50 -45 23 -95 50 -112 61 -16 10 -40 23
-51 28 -22 10 -37 35 -27 45 4 3 27 6 53 6 88 0 85 -10 82 302 -2 198 -7 289
-17 329 -9 33 -15 103 -15 163 0 59 -6 139 -14 179 -8 40 -18 153 -21 252 -4
98 -9 183 -11 187 -9 14 15 80 33 94 10 7 37 14 60 14 23 0 54 5 70 11 15 6
55 14 87 18 33 3 61 11 63 16 2 6 -17 24 -42 40 -70 44 -106 91 -174 226 -34
68 -80 157 -101 197 -22 40 -44 87 -49 105 -5 17 -19 57 -31 87 -12 30 -25 70
-30 89 -5 18 -13 38 -19 44 -6 6 -11 23 -11 37 0 14 -7 35 -15 46 -8 10 -15
28 -15 39 0 11 -9 38 -20 60 -11 22 -19 50 -20 62 0 12 -4 24 -9 27 -5 4 -12
25 -16 49 -4 23 -11 47 -15 52 -4 6 -11 29 -15 53 -6 40 -26 72 -45 72 -4 0
-11 -71 -14 -157 -6 -144 -14 -244 -35 -436 -5 -38 -13 -73 -20 -80 -6 -6 -11
-20 -11 -30 0 -11 -10 -36 -22 -56 -43 -69 -87 -100 -258 -180 -19 -9 -35 -21
-35 -27 0 -6 37 -44 82 -84 70 -62 89 -86 122 -154 22 -45 43 -97 46 -116 4
-19 11 -40 16 -46 5 -7 14 -40 19 -75 5 -35 13 -84 19 -109 6 -25 10 -106 11
-180 0 -74 7 -220 15 -325 16 -211 20 -731 6 -739 -10 -7 -197 80 -207 95 -3
5 -12 9 -20 9 -16 0 -19 -41 -4 -56 6 -6 15 -33 20 -60 5 -27 13 -67 19 -89
48 -192 60 -318 42 -460 -19 -149 -33 -201 -66 -235 -37 -38 -75 -39 -150 -4
-64 31 -104 77 -154 176 -22 45 -54 87 -97 127 -55 52 -64 66 -64 95 0 19 5
38 11 41 5 4 15 17 20 28 18 41 37 70 50 78 28 17 -3 21 -39 5 -26 -12 -57
-16 -102 -14 l-65 3 -5 75 c-3 41 -11 85 -18 97 -6 12 -12 40 -12 62 0 32 5
44 26 58 88 62 200 160 192 169 -3 3 -38 8 -77 11 -39 3 -74 10 -77 14 -3 5
-12 9 -20 9 -15 0 -154 78 -154 87 0 17 24 43 39 43 10 0 24 7 31 15 9 11 34
15 100 15 135 0 148 12 79 72 -39 34 -41 38 -55 134 -20 129 -30 765 -15 914
12 124 36 289 50 345 6 22 11 67 11 100 0 33 7 82 15 109 8 27 15 65 15 85 0
20 7 45 15 55 8 11 15 29 15 40 0 36 61 146 89 161 34 18 141 119 141 134 0
11 -70 51 -89 51 -25 0 -182 82 -206 107 -47 49 -146 180 -166 219 -10 21 -19
53 -19 70 0 18 -5 45 -11 61 -6 15 -14 66 -18 112 -3 47 -11 86 -17 88 -6 2
-19 -18 -29 -44z"/>
<path d="M17516 10413 c-3 -3 -6 -24 -6 -45 0 -21 -7 -55 -16 -76 -17 -42 -25
-314 -11 -412 l8 -55 -58 -75 c-58 -74 -180 -201 -259 -266 -72 -60 -151 -94
-219 -94 -77 0 -306 27 -340 40 -35 13 -75 13 -75 -1 0 -6 14 -28 30 -49 29
-36 40 -85 21 -92 -4 -1 -27 -25 -50 -51 -47 -55 -50 -78 -19 -145 14 -31 22
-67 22 -105 1 -58 0 -59 -50 -107 -28 -27 -54 -56 -57 -65 -5 -11 20 -33 96
-82 56 -37 110 -72 119 -78 16 -9 70 -46 183 -121 28 -19 56 -34 63 -34 6 0
12 -4 12 -9 0 -4 19 -21 43 -37 23 -16 48 -34 54 -41 7 -6 25 -21 39 -32 15
-12 24 -25 20 -29 -10 -9 -314 -24 -536 -25 -178 -1 -228 6 -289 37 -43 23
-59 10 -37 -32 23 -44 23 -602 1 -676 -8 -27 -15 -79 -15 -116 0 -37 -7 -87
-15 -110 -8 -23 -15 -62 -15 -86 0 -25 -6 -70 -14 -102 -14 -55 -19 -76 -52
-207 -14 -54 -31 -172 -50 -350 -5 -51 -3 -64 14 -85 11 -14 24 -22 28 -18 4
5 11 45 15 90 4 46 15 107 23 136 20 71 102 232 119 232 4 0 7 6 7 13 0 6 12
25 27 41 24 28 26 29 39 12 7 -10 18 -44 24 -75 6 -31 18 -78 25 -106 24 -89
36 -139 44 -180 4 -22 13 -50 19 -62 7 -12 12 -34 12 -50 1 -15 7 -39 15 -53
8 -14 14 -36 15 -48 0 -13 6 -38 14 -55 7 -18 24 -61 36 -96 30 -82 67 -153
105 -198 23 -28 33 -42 80 -116 93 -145 110 -164 166 -182 36 -12 68 -16 112
-11 84 7 187 29 214 44 12 6 32 12 45 12 13 0 33 7 44 15 10 8 29 15 40 15 12
0 27 7 34 15 7 8 21 15 31 15 18 0 200 90 226 112 7 5 20 8 28 4 18 -6 21
-118 5 -161 -16 -43 -24 -362 -10 -425 6 -30 17 -84 24 -120 8 -36 19 -78 25
-93 6 -16 11 -45 11 -65 0 -20 7 -46 15 -56 8 -11 15 -32 15 -46 0 -14 7 -35
15 -46 8 -10 15 -26 15 -35 0 -9 12 -38 26 -65 15 -27 38 -71 52 -99 14 -27
39 -68 54 -89 15 -21 28 -45 28 -53 0 -7 5 -13 10 -13 6 0 14 -10 19 -22 5
-13 21 -40 35 -61 14 -21 26 -40 26 -42 0 -6 72 -129 79 -135 9 -8 51 -69 51
-74 0 -2 19 -33 42 -68 57 -84 65 -98 79 -131 6 -15 15 -27 20 -27 5 0 9 -4 9
-10 0 -5 15 -29 33 -53 17 -24 38 -53 45 -63 6 -10 45 -68 85 -128 39 -59 77
-116 82 -125 30 -49 148 -194 208 -255 38 -39 76 -85 83 -103 8 -17 18 -34 24
-38 5 -3 10 -14 10 -24 0 -10 10 -31 22 -46 30 -38 179 -155 190 -149 11 7 10
51 -1 58 -5 4 -19 27 -31 54 -12 26 -45 94 -72 152 -28 58 -57 121 -66 140 -8
19 -19 42 -24 50 -4 8 -11 22 -14 30 -3 8 -9 22 -14 30 -5 8 -21 40 -36 70
-15 30 -29 57 -33 60 -16 13 -111 225 -111 249 0 10 -7 24 -15 31 -8 7 -15 23
-15 35 0 12 -7 28 -15 35 -8 7 -15 22 -15 34 0 12 -7 31 -15 42 -8 10 -15 28
-15 40 0 11 -7 29 -15 40 -8 10 -15 26 -15 34 0 8 -7 28 -15 44 -8 15 -15 33
-15 40 -1 6 -9 29 -20 51 -11 22 -19 46 -20 53 0 8 -6 26 -13 40 -8 15 -21 42
-30 60 -9 19 -17 42 -17 52 0 9 -7 23 -15 30 -8 7 -15 24 -15 37 0 14 -6 37
-14 51 -7 15 -21 54 -31 87 -10 33 -22 74 -27 90 -6 17 -16 57 -24 90 -7 33
-20 87 -28 120 -8 33 -20 80 -26 105 -7 25 -16 59 -22 75 -6 17 -13 53 -17 80
-4 28 -10 56 -14 63 -10 14 10 79 33 105 12 15 15 49 15 172 0 132 -2 156 -17
172 -10 11 -18 31 -18 44 0 14 -7 34 -15 45 -11 15 -14 56 -15 194 0 113 4
180 11 187 6 6 14 26 19 44 21 87 105 264 143 304 7 7 19 23 27 35 8 12 30 42
48 66 35 46 38 54 21 54 -11 0 -97 -57 -114 -75 -5 -6 -28 -23 -51 -38 -22
-15 -49 -36 -60 -45 -27 -26 -180 -114 -234 -136 -25 -10 -60 -24 -78 -32 -18
-8 -43 -14 -55 -14 -13 0 -32 -7 -43 -15 -10 -8 -30 -15 -44 -15 -14 0 -38 -7
-54 -15 -15 -8 -39 -15 -52 -15 -14 0 -41 -7 -61 -15 -37 -16 -121 -28 -303
-45 -58 -5 -126 -12 -153 -14 -54 -6 -74 9 -105 78 -32 71 -44 127 -53 261 -5
72 -14 138 -19 147 -21 36 -10 63 50 126 33 35 60 69 60 76 0 7 -23 32 -50 55
-51 43 -152 169 -187 231 -10 19 -30 53 -43 75 -42 67 -100 195 -100 218 0 8
-7 28 -15 43 -20 38 -19 68 3 86 39 34 272 62 619 75 l172 6 7 -27 c9 -35 0
-178 -12 -197 -8 -13 -32 -93 -34 -111 0 -4 8 -5 18 -1 21 8 61 53 62 71 0 7
7 15 15 18 8 4 15 14 15 24 0 10 7 23 15 30 8 7 15 18 15 24 1 6 9 29 20 51
11 22 19 48 20 57 0 9 4 19 9 22 5 3 12 22 16 42 6 36 25 84 51 136 8 14 14
33 14 41 0 8 7 20 15 27 8 7 15 20 15 30 0 10 7 23 15 30 8 7 15 23 15 37 0
13 6 36 14 52 12 22 21 113 17 167 -1 15 -66 44 -99 44 -15 0 -47 7 -72 15
-25 8 -79 24 -120 36 -41 11 -89 27 -107 35 -17 8 -37 14 -45 14 -7 0 -22 7
-32 15 -11 8 -28 15 -38 15 -10 0 -18 4 -18 9 0 5 -12 14 -27 20 -16 6 -37 16
-48 23 -11 7 -57 37 -102 65 -71 45 -134 100 -190 165 -24 27 -6 51 65 87 259
130 290 144 367 162 22 5 49 13 60 18 11 5 31 12 45 14 47 10 114 38 158 68
24 16 48 27 53 24 5 -4 21 -32 35 -63 14 -31 30 -64 35 -72 5 -8 11 -21 14
-27 3 -7 7 -19 10 -25 3 -7 9 -20 13 -28 11 -19 34 -70 62 -140 12 -30 26 -59
31 -65 5 -5 9 -16 9 -25 0 -8 16 -46 35 -83 19 -38 35 -73 35 -78 0 -6 7 -17
15 -25 8 -9 15 -24 15 -34 0 -10 7 -31 15 -46 8 -16 15 -39 15 -51 0 -31 19
-38 28 -11 10 28 -3 445 -17 548 -6 41 -10 127 -11 191 0 77 -5 131 -15 159
-8 23 -15 60 -15 80 0 21 -6 51 -14 67 -7 15 -20 44 -28 63 -23 55 -43 102
-61 140 -28 62 -68 145 -77 163 -38 68 -125 244 -150 302 -12 28 -27 64 -35
80 -8 17 -16 38 -19 47 -6 19 -40 41 -50 31z"/>
<path d="M12270 10093 c-130 -114 -144 -127 -199 -193 -30 -36 -66 -76 -81
-90 -14 -14 -36 -42 -49 -64 -13 -21 -33 -49 -45 -61 -18 -20 -48 -74 -70
-125 -7 -15 -12 -25 -56 -95 -29 -46 -73 -137 -115 -240 -9 -22 -22 -53 -29
-70 -7 -16 -20 -46 -28 -65 -8 -19 -29 -64 -46 -100 -18 -36 -35 -80 -38 -98
-4 -18 -11 -35 -15 -38 -21 -13 -6 -33 34 -47 89 -32 174 -57 190 -57 32 0 38
-34 16 -91 -11 -30 -25 -67 -30 -84 -6 -16 -15 -39 -21 -50 -6 -11 -13 -49
-16 -85 -4 -60 -2 -68 23 -98 18 -21 36 -32 53 -32 44 0 72 -11 72 -29 0 -9
-21 -37 -46 -64 -46 -46 -46 -48 -40 -96 4 -28 13 -62 21 -78 8 -15 15 -41 15
-58 0 -16 7 -39 15 -49 8 -11 15 -34 15 -50 1 -17 7 -42 15 -56 8 -14 14 -36
15 -50 0 -14 6 -45 14 -70 8 -25 20 -72 26 -105 29 -147 42 -216 56 -295 8
-47 19 -107 24 -135 5 -27 9 -105 9 -171 1 -96 -2 -124 -14 -134 -11 -9 -60
-11 -184 -9 -93 2 -173 1 -177 -3 -8 -9 35 -47 53 -48 6 0 18 -6 25 -12 7 -7
33 -26 58 -43 24 -16 66 -52 92 -78 58 -59 70 -110 44 -185 -10 -26 -21 -62
-26 -81 -5 -18 -13 -38 -19 -44 -6 -6 -11 -20 -11 -32 0 -12 -7 -30 -15 -41
-8 -10 -15 -28 -15 -39 0 -11 -6 -32 -14 -47 -8 -15 -17 -42 -21 -60 -4 -18
-11 -37 -15 -43 -11 -14 -32 -154 -25 -166 4 -5 19 -9 34 -9 59 0 133 -84 111
-125 -18 -33 -89 -65 -145 -65 -80 0 -79 0 -66 -136 12 -117 29 -241 51 -359
6 -33 15 -82 19 -110 5 -27 16 -63 25 -80 9 -16 16 -39 16 -50 1 -11 7 -31 15
-45 8 -14 15 -36 15 -50 0 -14 7 -34 15 -44 8 -11 15 -37 15 -57 0 -21 4 -40
9 -43 5 -3 12 -23 15 -43 16 -88 102 -380 118 -398 4 -5 8 -15 8 -23 0 -24 52
-123 62 -120 7 3 9 38 7 98 -2 52 -3 174 -3 271 1 140 5 182 18 207 9 17 16
40 16 51 0 11 6 32 14 48 17 35 35 86 47 136 5 21 13 45 18 55 5 9 17 40 26
67 22 61 52 135 65 155 6 8 15 26 21 40 6 14 20 38 32 55 12 16 33 50 45 75
13 25 31 57 40 72 9 14 30 48 46 75 16 26 42 64 58 84 30 40 37 87 13 94 -23
7 -39 14 -55 23 -8 5 -37 20 -64 33 -27 13 -64 38 -82 55 l-34 31 0 104 c0 57
7 139 15 182 11 56 15 147 15 315 0 169 4 259 15 315 20 105 20 352 0 387 -8
14 -15 41 -15 60 0 19 -7 46 -15 60 -8 14 -14 40 -15 58 0 19 -6 46 -14 60 -8
15 -18 48 -21 74 -3 26 -10 50 -16 53 -12 8 -12 35 1 35 6 0 10 -6 10 -14 0
-7 12 -26 26 -42 15 -16 40 -54 58 -86 47 -84 116 -198 148 -242 15 -21 28
-43 28 -47 0 -5 18 -39 41 -75 22 -37 45 -77 50 -88 5 -12 14 -30 21 -41 23
-40 28 -50 39 -75 5 -13 14 -27 18 -30 6 -4 31 -49 78 -142 8 -15 18 -30 24
-33 5 -4 9 -12 9 -20 0 -8 12 -33 28 -57 15 -24 32 -52 39 -63 7 -11 33 -54
58 -95 25 -41 51 -84 58 -95 7 -11 24 -36 38 -55 14 -19 29 -43 32 -52 4 -10
11 -18 17 -18 5 0 10 -5 10 -11 0 -6 13 -28 28 -48 25 -31 45 -62 125 -196 7
-11 24 -36 38 -55 49 -67 47 -55 55 -425 2 -137 7 -256 9 -264 7 -18 26 -2 64
53 15 23 49 73 75 111 27 39 53 75 60 80 6 6 41 48 77 95 82 105 115 145 155
184 43 43 46 57 24 127 -11 34 -20 74 -20 89 0 15 -13 53 -30 84 -96 181 -89
160 -80 228 16 115 42 228 65 283 23 56 58 130 64 135 3 3 16 24 29 48 26 49
25 52 -45 138 -48 59 -44 77 37 162 39 41 70 78 70 82 0 5 -20 31 -44 57 -62
67 -109 136 -149 218 -69 142 -107 225 -107 234 0 9 -20 52 -42 91 -4 8 -11
22 -14 30 -3 8 -12 29 -19 45 -14 33 -30 104 -40 176 -6 47 17 129 36 129 19
0 141 -65 146 -77 3 -7 11 -13 19 -13 21 0 161 -98 226 -159 50 -45 59 -50 64
-35 3 11 11 33 19 49 13 28 34 231 36 340 1 104 -23 412 -37 466 -8 30 -14 71
-14 90 0 19 -5 40 -12 47 -6 6 -15 33 -19 59 -6 42 -85 284 -109 338 -20 43
-42 112 -47 145 -3 19 -12 44 -19 55 -8 11 -14 29 -14 41 0 12 -7 27 -15 34
-8 7 -15 18 -15 25 0 14 -69 154 -85 171 -5 6 -17 22 -25 35 -26 39 -145 171
-214 238 -52 50 -70 61 -79 52 -9 -9 -8 -19 6 -42 9 -17 17 -35 17 -41 0 -5 6
-24 14 -41 18 -41 39 -104 66 -197 12 -41 26 -88 32 -105 6 -16 14 -55 18 -85
4 -31 11 -66 14 -78 13 -40 -14 -132 -62 -214 -16 -27 -15 -28 34 -80 97 -104
164 -213 164 -268 0 -36 -38 -100 -73 -122 -13 -9 -32 -24 -41 -33 -19 -19
-74 -51 -163 -95 -66 -32 -73 -43 -48 -76 8 -10 15 -28 15 -39 0 -11 7 -29 15
-39 8 -11 15 -35 15 -54 0 -32 -2 -34 -27 -28 -89 22 -138 26 -224 21 -53 -4
-116 -12 -140 -19 -38 -11 -44 -17 -47 -44 -2 -17 6 -47 17 -68 12 -21 21 -47
21 -56 0 -10 4 -26 9 -36 5 -9 19 -51 31 -92 21 -70 28 -92 60 -180 7 -19 15
-47 17 -62 3 -15 11 -33 19 -39 8 -6 14 -20 14 -30 0 -10 4 -20 9 -23 9 -6 96
-179 130 -260 14 -32 21 -71 21 -115 1 -38 7 -76 15 -91 8 -14 14 -35 15 -46
0 -12 7 -27 15 -34 8 -7 15 -20 15 -29 0 -9 18 -35 41 -56 103 -102 121 -195
65 -355 -9 -25 -21 -53 -26 -62 -6 -10 -10 -23 -10 -30 -1 -7 -9 -31 -20 -53
-11 -22 -19 -50 -20 -61 0 -12 -7 -27 -15 -34 -8 -7 -15 -19 -15 -26 0 -29
-20 -12 -40 33 -15 34 -24 84 -31 176 -11 151 -21 200 -43 222 -9 9 -16 23
-16 31 0 8 -24 48 -52 90 -62 88 -85 123 -95 144 -3 8 -19 31 -35 51 -15 20
-28 40 -28 43 0 7 -40 67 -51 76 -3 3 -19 27 -35 53 -16 27 -37 61 -46 75 -10
15 -23 38 -29 52 -5 14 -21 39 -35 57 -13 17 -24 35 -24 40 0 4 -30 53 -67
108 -36 55 -79 119 -95 143 -15 23 -28 44 -28 46 0 3 -28 47 -62 100 -103 157
-128 198 -128 211 0 7 -7 18 -15 25 -8 7 -15 20 -15 29 0 9 -7 25 -15 35 -8
11 -15 29 -15 41 0 12 -7 30 -15 41 -8 10 -15 36 -15 57 0 21 -7 54 -15 74
-20 47 -20 103 -1 103 14 0 64 -30 139 -82 47 -33 57 -20 57 75 0 46 3 104 6
129 4 31 2 49 -8 59 -46 48 -89 111 -86 126 2 10 23 25 53 36 28 10 57 25 65
33 15 15 16 15 -81 99 -37 33 -99 108 -99 121 0 4 -8 16 -17 26 -14 16 -16 44
-15 216 1 154 4 205 16 234 9 21 16 55 16 76 0 21 5 43 11 49 6 6 14 26 19 44
16 65 67 189 81 199 4 3 11 18 14 33 11 43 -12 33 -95 -40z"/>
<path d="M10725 9802 c-25 -21 -85 -97 -85 -108 0 -4 -6 -15 -13 -23 -7 -9
-24 -50 -37 -91 -23 -71 -24 -87 -22 -284 3 -305 -18 -369 -188 -571 -14 -16
-70 -77 -126 -135 -55 -58 -122 -129 -150 -157 -56 -60 -76 -64 -132 -30 -27
17 -59 26 -116 30 -49 5 -86 13 -96 22 -14 12 -19 13 -27 3 -16 -20 -33 -112
-33 -178 0 -55 -3 -62 -40 -101 -22 -23 -40 -48 -40 -56 0 -15 40 -33 75 -33
14 0 29 -9 35 -21 12 -22 3 -42 -38 -85 -10 -11 -25 -30 -31 -43 -16 -28 -6
-40 63 -81 57 -34 53 -32 185 -117 152 -98 193 -130 262 -199 49 -50 61 -67
50 -73 -30 -19 -216 -34 -336 -27 -491 29 -640 32 -652 17 -10 -11 -13 -77
-13 -250 0 -129 -5 -296 -10 -370 -6 -75 -15 -208 -20 -296 -8 -155 -22 -238
-50 -300 -17 -40 -15 -201 5 -295 8 -39 15 -93 15 -120 0 -82 28 -75 42 10 13
82 31 155 44 187 8 17 14 44 14 60 0 15 7 37 15 47 8 11 15 31 15 45 0 14 7
35 15 45 8 11 15 27 15 37 0 21 39 109 48 109 10 -1 42 -73 42 -94 0 -10 6
-32 14 -49 14 -32 25 -73 51 -197 8 -36 19 -85 25 -110 6 -25 15 -207 20 -405
12 -477 19 -545 66 -696 8 -26 14 -55 14 -66 0 -11 7 -28 15 -39 8 -10 15 -29
15 -41 0 -21 58 -140 84 -173 19 -24 106 -200 106 -214 0 -8 7 -19 15 -26 8
-7 15 -20 15 -29 1 -9 9 -34 20 -56 11 -22 19 -46 20 -53 0 -8 6 -12 13 -10
19 7 20 83 2 172 -9 44 -21 146 -26 226 -5 80 -12 175 -15 213 -7 66 19 269
37 292 4 6 11 35 15 65 10 79 57 178 86 184 13 2 50 9 83 16 33 7 112 16 175
20 63 5 128 13 143 19 16 6 45 11 65 11 56 0 387 65 407 80 6 4 26 11 45 15
19 4 66 23 105 42 75 36 87 43 150 83 62 38 78 48 100 59 11 6 38 22 60 36 22
14 49 29 60 35 11 6 34 19 50 30 17 10 83 45 148 77 64 31 116 62 114 68 -5
14 -251 18 -367 5 -165 -18 -290 -41 -416 -76 -28 -8 -64 -14 -80 -14 -16 -1
-40 -7 -54 -15 -14 -8 -47 -15 -75 -15 -27 0 -59 -7 -69 -15 -12 -9 -42 -15
-71 -15 -29 0 -74 -7 -101 -15 -66 -20 -242 -20 -281 -1 -15 8 -35 18 -43 21
-8 3 -28 14 -45 25 -16 11 -40 24 -53 30 -33 14 -42 49 -42 172 0 128 19 225
62 317 31 67 29 80 -17 81 -11 0 -31 7 -45 15 -14 8 -37 14 -51 15 -15 0 -32
7 -39 15 -7 8 -25 15 -40 15 -31 0 -159 63 -177 87 -31 41 64 60 133 27 47
-23 53 -11 17 34 -38 48 -106 152 -118 182 -4 8 -11 22 -16 30 -5 8 -12 22
-15 30 -11 30 -46 106 -60 132 -8 14 -14 33 -14 41 0 8 -7 20 -15 27 -17 14
-20 67 -4 72 6 2 55 -2 108 -8 53 -7 137 -18 186 -24 50 -6 109 -15 131 -20
23 -5 79 -12 125 -15 46 -4 105 -11 130 -16 25 -6 93 -13 150 -17 93 -6 104
-9 101 -25 -2 -10 -11 -26 -20 -36 -175 -186 -248 -265 -250 -272 -6 -16 38
-9 81 12 52 27 171 105 212 139 69 57 193 189 229 242 31 47 46 60 77 68 66
18 60 28 -86 145 -123 98 -285 260 -328 327 -20 31 -55 91 -78 135 -22 43 -51
96 -64 118 -13 22 -24 46 -25 54 0 8 -8 23 -17 33 -10 12 -17 37 -17 68 -1 63
9 73 134 134 19 9 54 34 76 54 23 20 76 68 119 106 62 57 80 68 93 59 9 -5 18
-22 20 -36 2 -14 10 -31 18 -37 8 -7 14 -25 14 -39 0 -15 7 -36 15 -47 8 -10
15 -29 15 -41 0 -12 6 -37 14 -55 16 -37 32 -111 47 -208 5 -36 15 -85 21
-110 6 -25 13 -109 16 -188 3 -113 7 -145 19 -149 17 -7 73 44 73 67 0 8 6 24
14 35 7 11 16 62 20 115 3 52 11 113 16 135 5 22 10 113 10 203 0 92 6 205 15
263 15 96 14 106 -6 217 -28 148 -32 207 -21 257 6 27 4 56 -5 90 -7 28 -13
64 -13 80 0 17 -7 39 -15 49 -8 11 -15 34 -15 50 0 17 -7 40 -15 50 -8 11 -15
38 -15 60 -1 23 -7 52 -15 66 -8 14 -14 37 -15 51 0 14 -7 34 -15 45 -8 10
-15 25 -15 32 0 8 -6 28 -14 45 -8 18 -24 66 -36 107 -13 41 -29 93 -37 114
-10 28 -14 74 -12 155 1 64 -2 116 -7 118 -5 1 -18 -5 -29 -15z"/>
<path d="M9416 9733 c-3 -42 -6 -111 -6 -154 0 -43 -7 -104 -15 -136 -8 -31
-15 -81 -15 -109 0 -29 -5 -65 -11 -81 -6 -15 -14 -55 -19 -88 -13 -88 -40
-199 -51 -210 -5 -5 -9 -17 -9 -27 0 -44 -51 -121 -189 -288 -101 -122 -146
-169 -163 -170 -9 0 -21 -6 -25 -12 -9 -15 -35 -32 -78 -51 -16 -8 -36 -21
-44 -30 -9 -11 -21 -15 -37 -11 -13 4 -30 1 -38 -5 -7 -6 -35 -14 -62 -17 -27
-4 -55 -11 -62 -17 -7 -6 -74 -13 -148 -15 -118 -4 -134 -7 -134 -22 0 -9 9
-28 21 -41 62 -71 115 -149 155 -229 24 -48 44 -94 44 -102 1 -7 9 -31 20 -53
16 -32 19 -62 19 -155 0 -93 -3 -123 -19 -155 -11 -22 -19 -43 -20 -47 -1 -24
-65 -107 -92 -121 -43 -21 -187 -86 -213 -96 -73 -30 -235 -118 -235 -128 0
-11 26 -69 60 -135 20 -38 31 -188 20 -271 -7 -45 -15 -86 -19 -92 -5 -5 -19
-44 -32 -85 -12 -41 -29 -84 -36 -95 -7 -11 -13 -29 -13 -41 0 -12 -7 -27 -15
-34 -8 -7 -15 -22 -15 -34 0 -12 -7 -31 -15 -42 -8 -10 -15 -25 -15 -32 0 -15
-21 -67 -46 -115 -8 -16 -14 -36 -14 -45 0 -28 -49 -124 -60 -117 -5 3 -10 12
-10 19 0 8 -7 19 -15 26 -8 7 -15 20 -15 30 0 10 -7 23 -15 30 -8 7 -15 23
-15 35 0 12 -7 28 -15 35 -8 7 -15 19 -15 27 0 27 -43 108 -70 133 -32 29 -90
121 -90 142 0 9 -7 21 -15 28 -8 7 -15 19 -15 27 0 18 -123 226 -154 263 -12
14 -35 44 -52 68 -16 24 -33 49 -38 56 -6 9 1 28 22 60 18 26 32 49 32 52 0 3
9 17 20 31 26 33 26 63 0 63 -30 0 -180 68 -180 82 0 3 -10 10 -22 14 -37 11
-86 84 -183 272 -31 59 -60 111 -65 116 -6 6 -10 18 -10 27 0 9 -7 22 -15 29
-8 7 -15 21 -15 32 0 10 -7 30 -16 43 -8 13 -14 34 -12 47 3 21 11 24 88 33
47 6 99 18 116 27 28 16 85 77 109 118 5 10 23 39 38 65 18 28 26 53 22 65 -3
10 -36 41 -73 69 -92 68 -247 230 -307 321 -56 85 -154 277 -155 301 0 9 -7
30 -15 45 -8 16 -15 43 -15 61 0 18 -7 58 -15 90 -17 64 -19 182 -5 288 23
172 29 208 39 218 14 14 14 64 1 72 -6 3 -13 -2 -17 -12 -3 -10 -18 -34 -32
-53 -15 -19 -46 -74 -70 -123 -24 -48 -48 -90 -52 -93 -5 -3 -9 -14 -9 -24 0
-10 -4 -20 -8 -22 -10 -3 -82 -125 -82 -137 0 -4 -13 -34 -30 -66 -16 -32 -30
-63 -30 -67 0 -11 -54 -136 -87 -200 -7 -14 -13 -39 -13 -55 -1 -15 -7 -39
-15 -53 -21 -37 -21 -336 0 -387 8 -19 15 -51 15 -70 0 -46 45 -121 77 -129
13 -4 49 -19 80 -35 31 -16 62 -29 68 -29 7 0 20 -9 29 -19 19 -21 15 -50 -8
-74 -7 -6 -19 -24 -27 -38 -24 -45 -102 -174 -108 -179 -3 -3 -17 -25 -30 -50
-14 -25 -53 -89 -88 -143 -36 -54 -62 -105 -59 -112 3 -8 27 -15 58 -18 29 -3
73 -10 98 -17 25 -6 72 -19 105 -27 33 -8 76 -21 95 -28 19 -7 87 -29 150 -50
63 -20 132 -44 153 -53 39 -17 48 -41 22 -62 -8 -7 -15 -18 -15 -25 0 -7 -13
-40 -30 -73 -16 -34 -30 -65 -30 -69 0 -4 -6 -20 -14 -35 -8 -15 -17 -42 -21
-60 -4 -18 -14 -42 -21 -53 -19 -26 -18 -94 0 -101 8 -3 28 1 43 9 15 9 55 25
88 38 33 12 75 29 93 38 32 16 34 15 52 -9 11 -14 22 -38 25 -55 16 -78 108
-262 151 -300 22 -19 104 -126 104 -135 0 -5 13 -28 29 -52 42 -64 131 -254
131 -281 0 -9 4 -18 9 -21 5 -3 12 -18 15 -33 4 -16 21 -57 38 -93 17 -36 37
-80 45 -97 7 -18 19 -48 26 -65 24 -58 39 -102 54 -163 36 -149 44 -184 54
-240 6 -33 17 -82 25 -109 8 -26 14 -69 14 -95 0 -25 7 -64 15 -86 8 -22 14
-74 15 -115 0 -41 7 -97 15 -124 9 -28 15 -90 15 -145 1 -53 7 -132 15 -176 8
-44 15 -125 15 -180 0 -55 5 -145 10 -200 6 -55 13 -140 16 -190 6 -91 9 -105
23 -105 9 0 51 86 51 104 0 8 7 27 15 42 8 16 15 36 15 45 0 8 7 24 15 35 8
10 15 33 15 49 0 17 7 39 15 49 8 11 15 29 15 41 0 12 7 30 15 41 8 10 15 28
15 39 0 11 7 33 15 49 8 15 15 39 15 52 0 13 6 41 14 61 16 44 43 157 52 223
3 25 12 64 20 88 8 23 14 64 14 91 0 27 7 65 15 84 8 21 15 67 15 105 0 38 7
91 15 118 8 27 15 85 15 129 0 45 7 107 15 138 8 32 15 93 15 135 0 43 7 104
15 135 8 32 15 77 15 101 0 70 46 198 100 281 11 17 23 37 27 45 3 8 19 31 35
51 15 20 28 40 28 43 0 4 8 19 19 34 10 15 40 61 67 102 71 109 183 256 258
337 36 39 66 76 66 83 0 7 -11 21 -25 32 -29 22 -65 87 -65 116 0 11 -6 25
-14 31 -11 10 -17 6 -30 -20 -9 -18 -16 -40 -16 -49 0 -20 -26 -34 -36 -19
-11 19 -6 196 7 220 7 13 16 37 20 54 12 45 68 206 84 242 8 17 15 42 15 55 1
12 7 34 15 48 8 14 14 49 15 79 0 52 14 147 29 201 8 30 54 48 160 60 109 12
111 18 50 216 -14 47 -11 62 16 76 74 40 340 213 365 238 3 3 23 17 46 31 67
44 138 110 148 138 5 14 12 31 16 36 5 6 12 28 16 50 4 22 13 54 21 72 7 18
13 50 13 71 0 21 6 44 13 50 20 21 23 320 3 382 -9 27 -16 56 -16 65 0 31 -65
168 -95 202 -41 46 -82 146 -95 232 -5 29 -13 58 -19 64 -6 6 -11 30 -11 53 0
39 -29 94 -49 94 -5 0 -11 -34 -15 -77z"/>
</g>
</svg>
