<svg id="Capa_1" data-name="Capa 1" xmlns="http://www.w3.org/2000/svg" viewBox="0 0 1809.94 773.39"><defs><style>.cls-1{fill:#fff;}</style></defs><title>lavenue</title><path class="cls-1" d="M181,1.54c-10.5,4.8-13.1,6.1-19.2,10-21.2,13.6-45.6,40.5-57.4,63.5a62.2,62.2,0,0,1-3.4,5.9c-1.2,1-9.1,17-12.6,25.5-.6,1.6-1.9,4.7-2.8,6.8a20.08,20.08,0,0,0-1.6,5.5,8,8,0,0,1-1.5,3.8A8.63,8.63,0,0,0,81,127a8.94,8.94,0,0,1-1.5,4.5,7.58,7.58,0,0,0-1.5,3.9,11.42,11.42,0,0,1-1.4,4.6,29.47,29.47,0,0,0-2,6.5c-.5,2.1-1.1,4.3-1.6,4.9s-1.3,3.5-2,6.5c-3.1,14.6-3.9,19-5,25-.6,3.6-1.8,9.6-2.6,13.5a54.27,54.27,0,0,0-1.2,13c.3,5.7.4,6,3.3,6.7,11,2.6,27.5,7.2,28.6,7.8,3,1.9,3.2,27.5.3,37.4a35.92,35.92,0,0,0-1.4,7.8c0,5-6.3,24-10.1,30.8a37,37,0,0,0-2,4,9.45,9.45,0,0,1-1.7,3,37,37,0,0,0-3.6,5c-1.6,2.4-7.6,9.1-13.2,14.8-12.1,12-12.8,13-10.8,15.7,3.6,5,14.2,14.8,18.1,16.7,4.4,2.2,5.2,4.1,3.3,7.6-.5.9-2.1,4.6-3.6,8.2s-4.4,10.3-6.6,14.8l-4,8.4,3.8,5.5a65.33,65.33,0,0,0,9.5,10.4l5.7,5-.1,16.8c0,14,.3,17.2,1.7,19.2a9.79,9.79,0,0,1,1.6,4.7,14.3,14.3,0,0,0,1.5,5.2c1.2,2.4,1.5,9.2,1.7,39.9.1,32.9-.1,37.2-1.5,39.5a9.68,9.68,0,0,0-1.7,4.6c0,2.4-2.7,6.5-8.5,12.8l-4,4.4v9.1a92.55,92.55,0,0,1-5.1,28.2A25.24,25.24,0,0,0,62,610a8.94,8.94,0,0,1-1.5,4.5A10.56,10.56,0,0,0,59,620c0,2-.7,4.2-1.5,4.9a5.79,5.79,0,0,0-1.5,3.9,15.16,15.16,0,0,1-1.5,5.5,12.66,12.66,0,0,0-1.5,4,27.06,27.06,0,0,1-2,5.1,22.56,22.56,0,0,0-2,5.6,3.86,3.86,0,0,1-.6,2.2c-1.1,1-5.4,12-5.4,13.7a7.12,7.12,0,0,1-1.5,3.4A8,8,0,0,0,40,672a15,15,0,0,1-1.5,4.8c-.8,1.7-2.2,4.5-3,6.2a15.42,15.42,0,0,0-1.5,4.5c0,1.2-2.1,6.1-5.1,11.6a9.58,9.58,0,0,0-.9,3.7,6.09,6.09,0,0,1-1.5,3.5c-2,1.9-8.5,14.5-8.5,16.3a2.39,2.39,0,0,1-1.5,1.9,3.48,3.48,0,0,0-1.5,2.9c0,1.3-.4,2.6-.9,2.9-.9.6-2.2,3.1-7.9,15.6-7,15.3-7.6,17.6-4,16.4a8.61,8.61,0,0,0,3.3-1.8c.7-.6,3.1-2.8,5.3-4.9a40.44,40.44,0,0,0,7.3-9.6,54.93,54.93,0,0,1,7.8-10.8c8.2-8.4,33.1-43.1,33.1-46.1,0-.7.4-1.2,1-1.2s2.2-2.1,3.7-4.8a52,52,0,0,1,3.3-5.2,73.2,73.2,0,0,0,5.1-7.8c2.4-4.1,5.3-8.8,6.4-10.6C88.86,642.64,97,629,97,628.44a32,32,0,0,1,3-5.2c1.7-2.4,3-5,3-5.7a7.45,7.45,0,0,1,1.5-3.2,9.46,9.46,0,0,0,1.5-4.9,12.89,12.89,0,0,1,1.5-5.5,15.52,15.52,0,0,0,1.5-5.8,22.59,22.59,0,0,1,1.5-6.9,21.4,21.4,0,0,0,1.5-6.8,41.41,41.41,0,0,1,2-9.5,46,46,0,0,0,2-7.9,4.28,4.28,0,0,1,.9-2.6c.9-.9,1.5-2.8,4-13,3.3-13.4,4.1-17.8,4.1-21.4,0-4.5.8-4.9,5-2.4,3.9,2.2,5.6.7,6.5-5.7.7-5.4,3.7-10.1,11.9-19.1,2.8-3,7.9-8.9,11.3-13s7.8-9.2,9.8-11.4c4.8-5.2,7-7.7,13.5-15.4,3-3.6,6.9-7.9,8.5-9.7s3.9-4.2,5-5.5c3.9-4.5,23-26.4,24.5-28,7.9-8.6,11.5-11.9,12.8-11.9.9,0,3.3,1.6,5.3,3.6,4.2,4.1,5.1,4,9.8-2,3.2-4,4.8-5.2,11.1-8.1,6.6-3.1,16.2.4,20.3,7.4,2.1,3.6,2.2,10.4.2,12.1s-1.9,2.7,1,5.2l2.5,2.2v21.3c0,20.5-.7,28.5-3.5,42.3-.8,3.6-1.7,8.5-2,11a89.2,89.2,0,0,1-2.1,9.4,36,36,0,0,0-1.4,8.2c0,1.8-.4,3.6-1,3.9-1.2.7-1.4,6.5-.2,6.5.9,0,3.5-4.7,6.3-11.5.4-1.1,1.6-4,2.7-6.5s2.7-6.5,3.6-9a136.77,136.77,0,0,1,5.8-13c.4-.8,1.1-2.2,1.4-3a46.59,46.59,0,0,1,2-4.3,17.41,17.41,0,0,0,1.4-4,24.82,24.82,0,0,1,2-5.2,23.72,23.72,0,0,0,2-5.5,4.36,4.36,0,0,1,1.1-2.7c1.7-1.7,4-29.7,3.3-41.3-.3-5.8-.2-11,.3-11.6s5.3-3.2,10.8-5.9,14.9-7.1,20.9-10.1,11.5-5.4,12.2-5.4c2.6,0,3.7,4.7,4.2,16.8.4,9.9.2,12.9-1.1,15.5-2.5,5.1-4.7,13.2-4.7,17.4a7.74,7.74,0,0,0,2.8,6.5c10.8,10.4,12.2,12.2,12.2,14.9,0,5.5-8.7,10.9-17.5,10.9-5.8,0-11.8,2.4-15.1,6.1-1.7,1.8-1.8,3.6-1.6,15,.2,8.1.8,14.4,1.7,17a34.16,34.16,0,0,1,1.5,9.3c.1,2.8.7,6.2,1.5,7.6a14.36,14.36,0,0,1,1.5,6,14.36,14.36,0,0,0,1.5,6,18.36,18.36,0,0,1,1.5,7.5,18.73,18.73,0,0,0,1.5,7.5,13,13,0,0,1,1.5,4.3c0,2.3,1.9,6.5,13.2,29.7,4.9,10.2,9.5,19.8,10.2,21.5s3.9,8.2,7,14.5c5.5,11.1,6.9,13.7,8.8,17,.4.8,1.1,2.2,1.4,3,4.8,12.3,8,14.7,6.8,5.3a47.08,47.08,0,0,0-2-9,17.87,17.87,0,0,1-1.4-6,9,9,0,0,0-1.5-4.7,12.29,12.29,0,0,1-1.5-6c0-2.3-.7-5-1.5-6a11.76,11.76,0,0,1-1.5-5.8,13.4,13.4,0,0,0-1.4-6.1c-.7-1.2-1.7-5.9-2-10.4a70.6,70.6,0,0,0-1.6-10.9c-.6-1.4-1-5.8-1.1-9.7a70.65,70.65,0,0,0-1-12.2c-1.4-7.8-4-34.8-4.6-48.1l-.5-12.1,3.2-2.3a89.83,89.83,0,0,1,11.3-5.9c11.8-5.2,11.1-4.3,10.4-12.6-.6-6.9-.5-7.5,2.3-11.3,1.6-2.2,3.7-4.3,4.8-4.6,3.2-1.1,4.8-5.1,3.4-9a18.79,18.79,0,0,1-1.2-5.7,13.77,13.77,0,0,0-1.5-4.9c-.8-1.4-1.5-5.3-1.5-9a66.89,66.89,0,0,0-1.1-11c-.6-2.5-1.4-10.4-2-17.5s-1.4-14.3-1.9-15.9c-2.2-6.4-.7-9.1,7.8-13.8a122.66,122.66,0,0,0,11.7-6.9c2.2-1.4,7.4-4.4,11.5-6.5s9.4-5.2,11.7-6.7a33.67,33.67,0,0,1,4.7-2.7c.8,0,4.6,8.1,4.6,10a16.24,16.24,0,0,0,1.4,5.2c.7,1.8,2.1,5.8,2.9,8.8s2.3,7.8,3.1,10.7a39.51,39.51,0,0,1,1.6,6.3,16.6,16.6,0,0,0,1.6,4.6c2,4.2,1.4,12.8-1.5,20.8-2.5,7-2.6,10.6-.6,14.6,1.7,3.2,4.8,4.4,15,5.6,8.9,1,9.5,1.5,8.1,6.3a16.45,16.45,0,0,1-1.9,4.7c-1.6,1.6-.5,6.1,2.3,9.8,3.1,4.1,3.2,5.1.6,11.1a121,121,0,0,0-7.7,26,76.39,76.39,0,0,1-1.9,8.9,24.08,24.08,0,0,0-1,7,36.75,36.75,0,0,1-1.1,8.1,87.24,87.24,0,0,0-1.9,11.3c-.5,4-1.3,7.9-1.8,8.5s-1.3,4.3-1.7,8.2-1.1,7.8-1.6,8.7-1.2,4.5-1.5,8-1.1,6.8-1.6,7.5-1.2,3.8-1.4,7a100.33,100.33,0,0,1-2,11.8c-1.6,6.3-1.6,16.4.1,16.8.5.1,1.2-1.3,1.6-3a10.81,10.81,0,0,1,1.7-4.5,16.57,16.57,0,0,0,1.7-4.6,28.34,28.34,0,0,1,2.1-6,11.55,11.55,0,0,0,1.4-3.9,13.54,13.54,0,0,1,1.4-4c.8-1.5,2.1-4.4,2.9-6.3s2.2-5.1,3-7,2.3-5.5,3.2-8,2.3-5.9,3-7.5,2-5,3-7.5,2.6-6.3,3.6-8.6A24.82,24.82,0,0,0,483,538a1,1,0,0,1,.9-1.1c.5,0,1.3-1,1.6-2.3a69.87,69.87,0,0,1,4.7-10.7c.4-.8,1.1-2.2,1.4-3,2.6-6.5,13.5-28.7,19.4-39.5,2.7-5,5.4-9.9,6-11a36.87,36.87,0,0,1,1.9-3.5c.5-.8,2.7-4.4,4.7-8s4.2-7,4.6-7.5c5.3-6.9,10.8-14.5,10.8-15a12.42,12.42,0,0,1,2.1-3.4c1.6-2.2,1.9-3.6,1.4-6-.5-2.6-1.3-3.2-4.8-4.2s-6.5-.7-18.7,1.5c-14.8,2.7-23.5,3.3-24.4,1.7-.3-.5.4-3.5,1.5-6.7a47.36,47.36,0,0,0,2.2-14.9c.3-12.6-1.5-18-15.1-46.5-5.9-12.4-10.2-22-10.2-22.8.1-1.8,5.1-5.5,32.4-23.9a201.71,201.71,0,0,1,19.3-10.9c6.2-3.2,11.2-6.2,11-6.8s-2.6-1.6-5.3-2.3c-5.4-1.4-16.3-.5-26.1,2.3-24.3,6.6-30.7,8.6-33.5,10-5.7,3-9.1.9-10.3-6.3-.4-2.4-1.1-4.5-1.6-4.9s-.9-1.6-.9-2.9-1.4-6.4-3.1-11.2a106,106,0,0,1-3.9-14.3,45,45,0,0,0-1.9-8.3,25,25,0,0,1-1.1-7.3,24.41,24.41,0,0,0-1.6-8.2c-1.2-2.7-1.6-7.3-1.7-16.9l-.2-13.2,9-9.1c4.9-4.9,9.5-9,10.2-9,1.8,0,9.3-4.1,9.3-5,0-.5-2.2-2.7-5-5.1s-5-4.8-5-5.3,2.2-4.5,4.8-8.6c5.9-9.2,7.5-12.1,10.2-18.5a60.3,60.3,0,0,1,2.9-6.5,25.91,25.91,0,0,0,1.6-6c.4-2.5,1.2-5.1,1.8-5.8s1.4-5.2,1.8-10a114.47,114.47,0,0,1,1.8-13.2c1.3-5.8,1.3-16.7,0-25.5-.6-3.9-1.4-9-1.7-11.5-.5-3-1.2-4.5-2.2-4.5s-1.7,1.7-2.1,7a71.89,71.89,0,0,1-1.8,10.5,26,26,0,0,0-1.1,6.5,9.46,9.46,0,0,1-1.5,4.9,8,8,0,0,0-1.5,3.8c0,3.3-7.9,20.1-12.9,27.3-8.4,12.1-28.3,31.5-40.1,39.2-3,1.9-6.6,4.3-8,5.3s-5.7,3.4-9.5,5.5c-9.1,4.8-10.2,5.3-12.2,6.4-1.6.7-1.8,2.4-1.8,11.5,0,7.7-.4,10.9-1.4,11.5-.7.5-7.4,1.1-14.9,1.5s-15.8,1.2-18.5,1.7a78.7,78.7,0,0,1-11.4.9c-8.1,0-8.7,1.2-3.5,8.2,4.9,6.5,12.2,20.1,12.2,22.6a8,8,0,0,0,1.5,3.8c1.1,1.5,1.4,5.6,1.4,19.9,0,9.9-.4,20-1,22.5a141.87,141.87,0,0,0-1.8,17c-.4,6.9-1.3,14.1-1.9,16a102.82,102.82,0,0,0-1.6,14.3c-.3,5.9-1,11.7-1.6,12.7s-1,4.3-1.1,7.2c-.1,6.9-.4,7.6-6.9,13.2-6,5.2-17.5,15.5-25.5,22.7-6.9,6.2-10.4,8.3-11,6.7-.3-.7-.9-6.5-1.5-12.8-1.3-14.7-3.5-29.5-4.9-34a25.49,25.49,0,0,1-1.1-6.1,14.17,14.17,0,0,0-1.5-5.5,16.07,16.07,0,0,1-1.5-5.9,9.17,9.17,0,0,0-1.5-4.9A8.94,8.94,0,0,1,291,323a8.63,8.63,0,0,0-1.5-4.5,7.91,7.91,0,0,1-1.5-3.9c0-5.6-13.5-28.6-19.2-32.5-2-1.5-2.1-1.4-1.4,1.4,1.8,8.1,1.8,9.8.1,15.2-2.3,7.6-7.7,18.3-12.8,25.5-6.9,9.6-20.4,26.8-26.3,33.4-5.3,6-5.8,6.3-10.2,6.3-3.8,0-5.5-.6-8.4-3-4.2-3.4-8-4.4-12.3-3.2-3.7,1-4,4.1-.6,5.8,3.6,1.8,4.1,3.4,3.5,9.9-1.3,11.4-6.1,18.8-20.4,31.5-3.4,3-7.7,6.8-9.4,8.5-12.3,11.6-19.7,17.6-21.3,17.3-1.4-.2-2-1.7-2.5-5.7-.3-2.9-1.1-5.8-1.7-6.4s-1.1-2.9-1.1-5.2a32.22,32.22,0,0,0-1.5-8,52.1,52.1,0,0,1-2.1-11.2c-.6-6.1-.4-7.7,1.5-11.3,3.5-6.7,3-8.3-3.4-11-4-1.7-5.7-3-6.2-4.8-.3-1.3-.1-2.7.4-3.1a8.72,8.72,0,0,0,2.2-2.8,6.13,6.13,0,0,1,3.9-2.9,20.15,20.15,0,0,0,4.7-2,10.37,10.37,0,0,1,5.3-1.4c4.2,0,5-2,2.8-7.9a27.4,27.4,0,0,1-1.6-7.1c0-3.2-5.1-8.9-11-12.3-4.6-2.6-8-7-8-10.4a7.28,7.28,0,0,0-1.5-3.7c-1-1.3-1.5-4.3-1.5-8.1,0-3.4-.5-6.6-1.1-7.2-.8-.8-.8-1.7,0-3.1.6-1.2,1.1-7.4,1.1-14.5,0-7.9.5-13.9,1.4-16.8.8-2.4,1.7-5.5,2-7,.8-3.6,5.8-10.7,9.2-13a12.84,12.84,0,0,1,5.7-1.9c2.3,0,2.7-.4,2.7-2.8,0-3-5.8-9.2-13.2-14.2-4.8-3.2-5.1-4.2-3.4-9.8.8-2.6,2.5-8.1,3.7-12.2a103.62,103.62,0,0,1,3.6-10,12.09,12.09,0,0,0,1.3-3.8c0-.6.4-1.2.9-1.2s1.2-1.2,1.6-2.7a9.09,9.09,0,0,1,1.3-3.3,36.34,36.34,0,0,0,3.4-4.5,77.61,77.61,0,0,1,8.3-9.4c5.9-5.8,6.1-6.1,4.3-9.4a21.1,21.1,0,0,1-1.7-6.2c-.7-4.9-2.1-5.2-13.8-3.5-6.4.9-9.5.9-13.5,0-12.3-2.7-16.4-6.8-15.5-15.6.7-7.7,2.7-17.6,4.3-21.1a15.86,15.86,0,0,0,1.4-5.6,5.67,5.67,0,0,1,1.5-3.7,5.36,5.36,0,0,0,1.5-3.5,5.36,5.36,0,0,1,1.5-3.5,4.8,4.8,0,0,0,1.5-3c0-1.6,1.3-4.8,4.2-10,.4-.8,1.4-2.9,2.1-4.5,3.8-8.3,7.3-15.1,8.4-16.3a4.56,4.56,0,0,0,1.3-2.7,1.88,1.88,0,0,1,.8-1.7c.9-.4,5.2-6.5,5.2-7.4a27.3,27.3,0,0,1,3-4.4c1.7-2.1,3-4.1,3-4.5,0-2.2,22.7-28.8,30.2-35.4,2.1-1.8,3.8-4,3.8-4.7C190-.56,185.36-.46,181,1.54Zm219,223.3a11.75,11.75,0,0,1,1,4.1,14.24,14.24,0,0,0,1.6,5.3c.9,1.8,2,3.9,2.4,4.7a9.17,9.17,0,0,0,3.7,3c2.6,1.3,2.9,1.8,2.2,3.8a15.65,15.65,0,0,1-3.2,4.5c-3.3,3.2-9.3,10.9-10,13-.5,1.2.2,2.5,2,4,8.6,7.1,8.3,6.4,8.3,19.4,0,11.4,1.3,26.5,2.6,30.9.5,2-.6,2.8-10.3,7.5-5.9,2.9-11.2,5.9-11.6,6.6a2.51,2.51,0,0,1-1.8,1.3,19.54,19.54,0,0,0-4.9,2.5c-5.6,3.5-7.1,3.3-6.3-.8a29.05,29.05,0,0,1,1.9-5.9,15.09,15.09,0,0,0,1.4-6,12,12,0,0,1,1.7-5.8c1.6-2.3,1.8-5.9,1.8-39.7V240l4.5-5.5c2.5-3,5.6-6.8,6.9-8.5C396.56,222.44,398.46,222.14,400,224.84Z" transform="translate(0 0.02)"/><path class="cls-1" d="M301.66,111.18c-.4,1.4-1.4,7.9-2.2,14.5-2.3,17.7-5,32.5-10.2,55.5-4,17.9-4.6,22-4.7,32.5-.1,17.6,3.6,29.9,10.8,36.3,8.3,7.3,16.3,1.7,21.9-15.1,1.6-5,2-8.9,2.1-20.2,0-11.9-.4-15.7-2.7-25.5-4.7-19.4-9.5-44.8-12-63.1C303.16,115.38,302,109.68,301.66,111.18Z" transform="translate(0 0.02)"/><path class="cls-1" d="M1347.46,48.64c-1,2.6-2.3,6.1-3.1,7.8-2.7,6.1-5.4,20.4-5.4,28.5,0,7.5,3,24.3,4.9,28a22.64,22.64,0,0,1,1.6,5,19.94,19.94,0,0,0,2.2,5.7,8.42,8.42,0,0,1,1.1,5c-.3,2.5-.8,2.9-5,3.6-4.5.7-9.1.2-19.8-2.2-5.4-1.2-11.7-1.4-12.4-.3-.2.4,1.8,3.2,4.6,6.2,8.9,9.7,12.2,16.3,14,28,1.7,11.9,2,19.4.9,26s-2.5,19.6-4.1,36.2c-.5,4.8-1.4,9.7-2,10.9-.8,1.3-1.6,10.8-2.1,24.3-.4,12.2-1.3,24.3-1.8,27.1s-1,15.1-1.1,27.5c0,16.9-.4,23.5-1.5,26.5a31.13,31.13,0,0,0-1.5,7.5,29,29,0,0,1-1.5,7.7c-1.1,3.3-1.2,5.7-.4,12,1.2,9.6,1.2,11.5-.2,17.8-1.5,6.6-1.7,6.9-6.2,13.7-2.1,3-1.5,6.8,1,6.8,2.8,0,8,3.9,9.1,6.8.5,1.5,1.8,8.2,2.8,14.9,1.7,12.1,1.7,12.3-.3,19.5-2.7,9.3-4.5,14.2-6.2,16.1-2.7,3.3-1,5.2,5.4,5.8,17.4,1.9,23.3,11.5,27.6,45.4a101.83,101.83,0,0,0,2.1,12c1.5,5.7,2.3,96,.9,106.2-.6,4.3-1.8,11.8-2.6,16.8s-2,13-2.6,18-1.3,11.3-1.7,14.2c-.7,4.3-.6,5.3.7,5.8,1.6.6,4.1-1.9,4.1-4.1a17.9,17.9,0,0,1,1.7-4.6c.9-1.8,2.2-4.5,3-6a12.45,12.45,0,0,0,1.3-4.5,7.28,7.28,0,0,1,1.5-3.7,7.64,7.64,0,0,0,1.5-3.7,4.57,4.57,0,0,1,1.5-2.9,4.57,4.57,0,0,0,1.5-3c0-1,1.6-5,3.5-8.9s3.5-7.3,3.5-7.6c0-2.1,28.2-58.6,30.3-60.8a20.13,20.13,0,0,0,3.3-5.3c.8-1.9,1.9-3.4,2.4-3.4a1,1,0,0,0,1-1c0-.6,1.4-3,3-5.3s4.7-6.5,6.8-9.4a99.81,99.81,0,0,1,30.2-27.8,76.68,76.68,0,0,0,10-6.9c2-1.7,5.7-4.9,8.4-7.1a124.69,124.69,0,0,0,11.3-11.5c3.5-4.1,7.6-8.9,9.1-10.5a133,133,0,0,0,13-17.4c1.8-3.4.8-5.5-2.1-4.6a81.47,81.47,0,0,1-15.6,2.8c-2.6,0-4-.6-5.8-2.9-1.9-2.5-2.3-4-2.3-10.5a47.6,47.6,0,0,1,1.5-12c2.2-6.2,3-17.8,1.6-23.3-1.4-5.8-.3-8.2,4.1-9.1a20.18,20.18,0,0,0,5.3-2.1,7.42,7.42,0,0,1,3.7-1.4c2.1,0,18.1-15.7,17.3-17-.3-.5-4.3-2.8-8.8-5s-9.5-5-11.2-6.1a56.68,56.68,0,0,0-5.1-2.8c-2.2-1-3.7-3.5-2.7-4.5.4-.3,2.7-.6,5.3-.6,8.8,0,8.5,1,8.2-30.2-.2-19.8-.7-28.9-1.7-32.9-.9-3.3-1.5-10.3-1.5-16.3a113.14,113.14,0,0,0-1.4-17.9c-.8-4-1.8-15.3-2.1-25.2s-.9-18.3-1.1-18.7c-.9-1.4,1.5-8,3.3-9.4a12.9,12.9,0,0,1,6-1.4,23.9,23.9,0,0,0,7-1.1,47.89,47.89,0,0,1,8.7-1.8c3.3-.3,6.1-1.1,6.3-1.6s-1.7-2.4-4.2-4c-7-4.4-10.6-9.1-17.4-22.6-3.4-6.8-8-15.7-10.1-19.7a71.21,71.21,0,0,1-4.9-10.5c-.5-1.7-1.9-5.7-3.1-8.7a93.35,93.35,0,0,1-3-8.9,13.23,13.23,0,0,0-1.9-4.4,6.26,6.26,0,0,1-1.1-3.7,9.3,9.3,0,0,0-1.5-4.6,7.58,7.58,0,0,1-1.5-3.9,18.78,18.78,0,0,0-2-6,21.61,21.61,0,0,1-2-6.2,3.59,3.59,0,0,0-.9-2.7c-.5-.4-1.2-2.5-1.6-4.9a18.55,18.55,0,0,0-1.5-5.2,19.59,19.59,0,0,1-1.5-5.3c-.6-4-2.6-7.2-4.5-7.2-.4,0-1.1,7.1-1.4,15.7-.6,14.4-1.4,24.4-3.5,43.6-.5,3.8-1.3,7.3-2,8a5,5,0,0,0-1.1,3c0,1.1-1,3.6-2.2,5.6-4.3,6.9-8.7,10-25.8,18-1.9.9-3.5,2.1-3.5,2.7s3.7,4.4,8.2,8.4c7,6.2,8.9,8.6,12.2,15.4,2.2,4.5,4.3,9.7,4.6,11.6a14.75,14.75,0,0,0,1.6,4.6c.5.7,1.4,4,1.9,7.5s1.3,8.4,1.9,10.9,1,10.6,1.1,18,.7,22,1.5,32.5c1.6,21.1,2,73.1.6,73.9-1,.7-19.7-8-20.7-9.5a2.53,2.53,0,0,0-2-.9c-1.6,0-1.9,4.1-.4,5.6.6.6,1.5,3.3,2,6s1.3,6.7,1.9,8.9c4.8,19.2,6,31.8,4.2,46-1.9,14.9-3.3,20.1-6.6,23.5-3.7,3.8-7.5,3.9-15,.4-6.4-3.1-10.4-7.7-15.4-17.6a43.46,43.46,0,0,0-9.7-12.7c-5.5-5.2-6.4-6.6-6.4-9.5,0-1.9.5-3.8,1.1-4.1a9.63,9.63,0,0,0,2-2.8c1.8-4.1,3.7-7,5-7.8,2.8-1.7-.3-2.1-3.9-.5-2.6,1.2-5.7,1.6-10.2,1.4l-6.5-.3-.5-7.5c-.3-4.1-1.1-8.5-1.8-9.7a17,17,0,0,1-1.2-6.2c0-3.2.5-4.4,2.6-5.8,8.8-6.2,20-16,19.2-16.9-.3-.3-3.8-.8-7.7-1.1s-7.4-1-7.7-1.4a2.53,2.53,0,0,0-2-.9c-1.5,0-15.4-7.8-15.4-8.7,0-1.7,2.4-4.3,3.9-4.3a4.8,4.8,0,0,0,3.1-1.5c.9-1.1,3.4-1.5,10-1.5,13.5,0,14.8-1.2,7.9-7.2-3.9-3.4-4.1-3.8-5.5-13.4-2-12.9-3-76.5-1.5-91.4,1.2-12.4,3.6-28.9,5-34.5a46.93,46.93,0,0,0,1.1-10,46.27,46.27,0,0,1,1.5-10.9,37.21,37.21,0,0,0,1.5-8.5,10.56,10.56,0,0,1,1.5-5.5,8.24,8.24,0,0,0,1.5-4c0-3.6,6.1-14.6,8.9-16.1,3.4-1.8,14.1-11.9,14.1-13.4,0-1.1-7-5.1-8.9-5.1-2.5,0-18.2-8.2-20.6-10.7-4.7-4.9-14.6-18-16.6-21.9a20.46,20.46,0,0,1-1.9-7,20.57,20.57,0,0,0-1.1-6.1c-.6-1.5-1.4-6.6-1.8-11.2s-1.1-8.6-1.7-8.8S1348.46,46,1347.46,48.64Z" transform="translate(0 0.02)"/><path class="cls-1" d="M1653.56,50.64c-.3.3-.6,2.4-.6,4.5a23,23,0,0,1-1.6,7.6c-1.7,4.2-2.5,31.4-1.1,41.2l.8,5.5-5.8,7.5a215.8,215.8,0,0,1-25.9,26.6c-7.2,6-15.1,9.4-21.9,9.4-7.7,0-30.6-2.7-34-4s-7.5-1.3-7.5.1c0,.6,1.4,2.8,3,4.9,2.9,3.6,4,8.5,2.1,9.2-.4.1-2.7,2.5-5,5.1-4.7,5.5-5,7.8-1.9,14.5a25.61,25.61,0,0,1,2.2,10.5c.1,5.8,0,5.9-5,10.7-2.8,2.7-5.4,5.6-5.7,6.5-.5,1.1,2,3.3,9.6,8.2,5.6,3.7,11,7.2,11.9,7.8,1.6.9,7,4.6,18.3,12.1,2.8,1.9,5.6,3.4,6.3,3.4s1.2.4,1.2.9,1.9,2.1,4.3,3.7a47.13,47.13,0,0,1,5.4,4.1c.7.6,2.5,2.1,3.9,3.2s2.4,2.5,2,2.9c-1,.9-31.4,2.4-53.6,2.5-17.8.1-22.8-.6-28.9-3.7-4.3-2.3-5.9-1-3.7,3.2,2.3,4.4,2.3,60.2.1,67.6a49.49,49.49,0,0,0-1.5,11.6,41.72,41.72,0,0,1-1.5,11,31.7,31.7,0,0,0-1.5,8.6,50.62,50.62,0,0,1-1.4,10.2c-1.4,5.5-1.9,7.6-5.2,20.7-1.4,5.4-3.1,17.2-5,35-.5,5.1-.3,6.4,1.4,8.5,1.1,1.4,2.4,2.2,2.8,1.8s1.1-4.5,1.5-9a93,93,0,0,1,2.3-13.6c2-7.1,10.2-23.2,11.9-23.2.4,0,.7-.6.7-1.3s1.2-2.5,2.7-4.1c2.4-2.8,2.6-2.9,3.9-1.2.7,1,1.8,4.4,2.4,7.5s1.8,7.8,2.5,10.6c2.4,8.9,3.6,13.9,4.4,18a28.73,28.73,0,0,0,1.9,6.2,11.52,11.52,0,0,1,1.2,5,14.56,14.56,0,0,0,1.5,5.3,13.92,13.92,0,0,1,1.5,4.8,15.9,15.9,0,0,0,1.4,5.5c.7,1.8,2.4,6.1,3.6,9.6,3,8.2,6.7,15.3,10.5,19.8,2.3,2.8,3.3,4.2,8,11.6,9.3,14.5,11,16.4,16.6,18.2a24.14,24.14,0,0,0,11.2,1.1c8.4-.7,18.7-2.9,21.4-4.4a12.05,12.05,0,0,1,4.5-1.2,8.92,8.92,0,0,0,4.4-1.5,7.9,7.9,0,0,1,4-1.5,5.1,5.1,0,0,0,3.4-1.5,4.8,4.8,0,0,1,3.1-1.5c1.8,0,20-9,22.6-11.2a3.12,3.12,0,0,1,2.8-.4c1.8.6,2.1,11.8.5,16.1s-2.4,36.2-1,42.5c.6,3,1.7,8.4,2.4,12a85.58,85.58,0,0,0,2.5,9.3,22.1,22.1,0,0,1,1.1,6.5,11,11,0,0,0,1.5,5.6,9.3,9.3,0,0,1,1.5,4.6,9.3,9.3,0,0,0,1.5,4.6,7,7,0,0,1,1.5,3.5c0,.9,1.2,3.8,2.6,6.5s3.8,7.1,5.2,9.9a91,91,0,0,0,5.4,8.9c1.5,2.1,2.8,4.5,2.8,5.3a1.23,1.23,0,0,0,1,1.3c.6,0,1.4,1,1.9,2.2a42.54,42.54,0,0,0,3.5,6.1,37.33,37.33,0,0,1,2.6,4.2c0,.6,7.2,12.9,7.9,13.5.9.8,5.1,6.9,5.1,7.4,0,.2,1.9,3.3,4.2,6.8,5.7,8.4,6.5,9.8,7.9,13.1.6,1.5,1.5,2.7,2,2.7a.92.92,0,0,1,.9,1c0,.5,1.5,2.9,3.3,5.3s3.8,5.3,4.5,6.3,4.5,6.8,8.5,12.8,7.7,11.6,8.2,12.5c3,4.9,14.8,19.4,20.8,25.5,3.8,3.9,7.6,8.5,8.3,10.3a12.41,12.41,0,0,0,2.4,3.8,3.17,3.17,0,0,1,1,2.4,10,10,0,0,0,2.2,4.6c3,3.8,17.9,15.5,19,14.9s1-5.1-.1-5.8a22.23,22.23,0,0,1-3.1-5.4c-1.2-2.6-4.5-9.4-7.2-15.2s-5.7-12.1-6.6-14a48.78,48.78,0,0,0-2.4-5c-.4-.8-1.1-2.2-1.4-3a20.18,20.18,0,0,0-1.4-3c-.5-.8-2.1-4-3.6-7a41.75,41.75,0,0,0-3.3-6c-1.6-1.3-11.1-22.5-11.1-24.9a4.8,4.8,0,0,0-1.5-3.1,5.36,5.36,0,0,1-1.5-3.5,5.36,5.36,0,0,0-1.5-3.5,5.1,5.1,0,0,1-1.5-3.4,8.56,8.56,0,0,0-1.5-4.2,7.58,7.58,0,0,1-1.5-4,8.24,8.24,0,0,0-1.5-4,7.12,7.12,0,0,1-1.5-3.4,14.14,14.14,0,0,0-1.5-4.4,12.66,12.66,0,0,1-1.5-4,27.06,27.06,0,0,0-2-5.1,25,25,0,0,1-2-5.3,12.13,12.13,0,0,0-1.3-4c-.8-1.5-2.1-4.2-3-6a17,17,0,0,1-1.7-5.2,4.8,4.8,0,0,0-1.5-3,5.67,5.67,0,0,1-1.5-3.7,12.22,12.22,0,0,0-1.4-5.1,86.6,86.6,0,0,1-3.1-8.7c-1-3.3-2.2-7.4-2.7-9s-1.6-5.7-2.4-9-2-8.7-2.8-12-2-8-2.6-10.5-1.6-5.9-2.2-7.5a54.93,54.93,0,0,1-1.7-8,28.84,28.84,0,0,0-1.4-6.3c-1-1.4,1-7.9,3.3-10.5,1.2-1.5,1.5-4.9,1.5-17.2,0-13.2-.2-15.6-1.7-17.2a7.7,7.7,0,0,1-1.8-4.4,8.94,8.94,0,0,0-1.5-4.5c-1.1-1.5-1.4-5.6-1.5-19.4,0-11.3.4-18,1.1-18.7a13.23,13.23,0,0,0,1.9-4.4c2.1-8.7,10.5-26.4,14.3-30.4a28.66,28.66,0,0,0,2.7-3.5c.8-1.2,3-4.2,4.8-6.6,3.5-4.6,3.8-5.4,2.1-5.4-1.1,0-9.7,5.7-11.4,7.5a36.11,36.11,0,0,1-5.1,3.8c-2.2,1.5-4.9,3.6-6,4.5-2.7,2.6-18,11.4-23.4,13.6-2.5,1-6,2.4-7.8,3.2a17.06,17.06,0,0,1-5.5,1.4,8.57,8.57,0,0,0-4.3,1.5,8.29,8.29,0,0,1-4.4,1.5,14.69,14.69,0,0,0-5.4,1.5,13.78,13.78,0,0,1-5.2,1.5,20.7,20.7,0,0,0-6.1,1.5c-3.7,1.6-12.1,2.8-30.3,4.5-5.8.5-12.6,1.2-15.3,1.4-5.4.6-7.4-.9-10.5-7.8-3.2-7.1-4.4-12.7-5.3-26.1-.5-7.2-1.4-13.8-1.9-14.7-2.1-3.6-1-6.3,5-12.6,3.3-3.5,6-6.9,6-7.6s-2.3-3.2-5-5.5c-5.1-4.3-15.2-16.9-18.7-23.1-1-1.9-3-5.3-4.3-7.5-4.2-6.7-10-19.5-10-21.8a13,13,0,0,0-1.5-4.3c-2-3.8-1.9-6.8.3-8.6,3.9-3.4,27.2-6.2,61.9-7.5l17.2-.6.7,2.7c.9,3.5,0,17.8-1.2,19.7-.8,1.3-3.2,9.3-3.4,11.1,0,.4.8.5,1.8.1,2.1-.8,6.1-5.3,6.2-7.1a2.26,2.26,0,0,1,1.5-1.8,2.87,2.87,0,0,0,1.5-2.4,4.57,4.57,0,0,1,1.5-3,4.31,4.31,0,0,0,1.5-2.4,27.06,27.06,0,0,1,2-5.1,22.92,22.92,0,0,0,2-5.7,2.83,2.83,0,0,1,.9-2.2c.5-.3,1.2-2.2,1.6-4.2.6-3.6,2.5-8.4,5.1-13.6a11,11,0,0,0,1.4-4.1,4.37,4.37,0,0,1,1.5-2.7,4.57,4.57,0,0,0,1.5-3,4.57,4.57,0,0,1,1.5-3,5.46,5.46,0,0,0,1.5-3.7,14,14,0,0,1,1.4-5.2c1.2-2.2,2.1-11.3,1.7-16.7-.1-1.5-6.6-4.4-9.9-4.4a30.82,30.82,0,0,1-7.2-1.5c-2.5-.8-7.9-2.4-12-3.6a96.08,96.08,0,0,1-10.7-3.5,14.55,14.55,0,0,0-4.5-1.4,7,7,0,0,1-3.2-1.5,8,8,0,0,0-3.8-1.5c-1,0-1.8-.4-1.8-.9s-1.2-1.4-2.7-2a30.79,30.79,0,0,1-4.8-2.3c-1.1-.7-5.7-3.7-10.2-6.5a85.12,85.12,0,0,1-19-16.5c-2.4-2.7-.6-5.1,6.5-8.7,25.9-13,29-14.4,36.7-16.2a40.78,40.78,0,0,0,6-1.8,19.76,19.76,0,0,1,4.5-1.4,50.77,50.77,0,0,0,15.8-6.8c2.4-1.6,4.8-2.7,5.3-2.4a30.33,30.33,0,0,1,3.5,6.3c1.4,3.1,3,6.4,3.5,7.2s1.1,2.1,1.4,2.7.7,1.9,1,2.5.9,2,1.3,2.8a142.61,142.61,0,0,1,6.2,14,40.32,40.32,0,0,0,3.1,6.5,4,4,0,0,1,.9,2.5c0,.8,1.6,4.6,3.5,8.3a56.75,56.75,0,0,1,3.5,7.8,4.86,4.86,0,0,0,1.5,2.5,6.09,6.09,0,0,1,1.5,3.4,12.84,12.84,0,0,0,1.5,4.6,14.41,14.41,0,0,1,1.5,5.1c0,3.1,1.9,3.8,2.8,1.1s-.3-44.5-1.7-54.8c-.6-4.1-1-12.7-1.1-19.1,0-7.7-.5-13.1-1.5-15.9a30.3,30.3,0,0,1-1.5-8,17.78,17.78,0,0,0-1.4-6.7c-.7-1.5-2-4.4-2.8-6.3-2.3-5.5-4.3-10.2-6.1-14-2.8-6.2-6.8-14.5-7.7-16.3-3.8-6.8-12.5-24.4-15-30.2-1.2-2.8-2.7-6.4-3.5-8s-1.6-3.8-1.9-4.7C1658,51.84,1654.56,49.64,1653.56,50.64Z" transform="translate(0 0.02)"/><path class="cls-1" d="M1129,82.64c-13,11.4-14.4,12.7-19.9,19.3-3,3.6-6.6,7.6-8.1,9a38.28,38.28,0,0,0-4.9,6.4,42,42,0,0,1-4.5,6.1c-1.8,2-4.8,7.4-7,12.5-.7,1.5-1.2,2.5-5.6,9.5-2.9,4.6-7.3,13.7-11.5,24-.9,2.2-2.2,5.3-2.9,7s-2,4.6-2.8,6.5-2.9,6.4-4.6,10a48.16,48.16,0,0,0-3.8,9.8,9.56,9.56,0,0,1-1.5,3.8c-2.1,1.3-.6,3.3,3.4,4.7,8.9,3.2,17.4,5.7,19,5.7,3.2,0,3.8,3.4,1.6,9.1-1.1,3-2.5,6.7-3,8.4a50.46,50.46,0,0,1-2.1,5c-.6,1.1-1.3,4.9-1.6,8.5-.4,6-.2,6.8,2.3,9.8,1.8,2.1,3.6,3.2,5.3,3.2,4.4,0,7.2,1.1,7.2,2.9,0,.9-2.1,3.7-4.6,6.4-4.6,4.6-4.6,4.8-4,9.6a31,31,0,0,0,2.1,7.8,14.66,14.66,0,0,1,1.5,5.8,9.46,9.46,0,0,0,1.5,4.9,10.14,10.14,0,0,1,1.5,5,15,15,0,0,0,1.5,5.6,13.66,13.66,0,0,1,1.5,5,29.47,29.47,0,0,0,1.4,7,100.75,100.75,0,0,1,2.6,10.5c2.9,14.7,4.2,21.6,5.6,29.5.8,4.7,1.9,10.7,2.4,13.5a134.93,134.93,0,0,1,.9,17.1c.1,9.6-.2,12.4-1.4,13.4s-6,1.1-18.4.9c-9.3-.2-17.3-.1-17.7.3-.8.9,3.5,4.7,5.3,4.8a5.2,5.2,0,0,1,2.5,1.2,61.82,61.82,0,0,0,5.8,4.3,76.49,76.49,0,0,1,9.2,7.8c5.8,5.9,7,11,4.4,18.5-1,2.6-2.1,6.2-2.6,8.1a13.23,13.23,0,0,1-1.9,4.4,5.12,5.12,0,0,0-1.1,3.2,8.23,8.23,0,0,1-1.5,4.1,7.58,7.58,0,0,0-1.5,3.9,12.3,12.3,0,0,1-1.4,4.7,28.34,28.34,0,0,0-2.1,6,17,17,0,0,1-1.5,4.3c-1.1,1.4-3.2,15.4-2.5,16.6.4.5,1.9.9,3.4.9,5.9,0,13.3,8.4,11.1,12.5-1.8,3.3-8.9,6.5-14.5,6.5-8,0-7.9,0-6.6,13.6,1.2,11.7,2.9,24.1,5.1,35.9.6,3.3,1.5,8.2,1.9,11a34.37,34.37,0,0,0,2.5,8,13,13,0,0,1,1.6,5,13.2,13.2,0,0,0,1.5,4.5,12,12,0,0,1,1.5,5,8.29,8.29,0,0,0,1.5,4.4,11.66,11.66,0,0,1,1.5,5.7c0,2.1.4,4,.9,4.3s1.2,2.3,1.5,4.3c1.6,8.8,10.2,38,11.8,39.8a4.23,4.23,0,0,1,.8,2.3c0,2.4,5.2,12.3,6.2,12,.7-.3.9-3.8.7-9.8-.2-5.2-.3-17.4-.3-27.1.1-14,.5-18.2,1.8-20.7a14,14,0,0,0,1.6-5.1,13.24,13.24,0,0,1,1.4-4.8,71.58,71.58,0,0,0,4.7-13.6,32.1,32.1,0,0,1,1.8-5.5,59.68,59.68,0,0,0,2.6-6.7c2.2-6.1,5.2-13.5,6.5-15.5a24.26,24.26,0,0,0,2.1-4,36.61,36.61,0,0,1,3.2-5.5,54.92,54.92,0,0,0,4.5-7.5c1.3-2.5,3.1-5.7,4-7.2s3-4.8,4.6-7.5a101.81,101.81,0,0,1,5.8-8.4c3-4,3.7-8.7,1.3-9.4a26,26,0,0,1-5.5-2.3c-.8-.5-3.7-2-6.4-3.3a39.08,39.08,0,0,1-8.2-5.5l-3.4-3.1v-10.4a121.66,121.66,0,0,1,1.5-18.2c1.1-5.6,1.5-14.7,1.5-31.5s.4-25.9,1.5-31.5c2-10.5,2-35.2,0-38.7a14.36,14.36,0,0,1-1.5-6,14.36,14.36,0,0,0-1.5-6,15.52,15.52,0,0,1-1.5-5.8,14.32,14.32,0,0,0-1.4-6,25.19,25.19,0,0,1-2.1-7.4c-.3-2.6-1-5-1.6-5.3-1.2-.8-1.2-3.5.1-3.5.6,0,1,.6,1,1.4s1.2,2.6,2.6,4.2a55,55,0,0,1,5.8,8.6c4.7,8.4,11.6,19.8,14.8,24.2a21.71,21.71,0,0,1,2.8,4.7c0,.5,1.8,3.9,4.1,7.5s4.5,7.7,5,8.8a31.68,31.68,0,0,0,2.1,4.1,62.21,62.21,0,0,1,3.9,7.5,9.24,9.24,0,0,0,1.8,3c.6.4,3.1,4.9,7.8,14.2a9.9,9.9,0,0,0,2.4,3.3,2.69,2.69,0,0,1,.9,2c0,.8,1.2,3.3,2.8,5.7s3.2,5.2,3.9,6.3,3.3,5.4,5.8,9.5,5.1,8.4,5.8,9.5,2.4,3.6,3.8,5.5a29.26,29.26,0,0,1,3.2,5.2c.4,1,1.1,1.8,1.7,1.8a1.1,1.1,0,0,1,1,1.1c0,.6,1.3,2.8,2.8,4.8,2.5,3.1,4.5,6.2,12.5,19.6.7,1.1,2.4,3.6,3.8,5.5,4.9,6.7,4.7,5.5,5.5,42.5.2,13.7.7,25.6.9,26.4.7,1.8,2.6.2,6.4-5.3,1.5-2.3,4.9-7.3,7.5-11.1s5.3-7.5,6-8,4.1-4.8,7.7-9.5c8.2-10.5,11.5-14.5,15.5-18.4,4.3-4.3,4.6-5.7,2.4-12.7a41.12,41.12,0,0,1-2-8.9c0-1.5-1.3-5.3-3-8.4-9.6-18.1-8.9-16-8-22.8,1.6-11.5,4.2-22.8,6.5-28.3s5.8-13,6.4-13.5a41.26,41.26,0,0,0,2.9-4.8c2.6-4.9,2.5-5.2-4.5-13.8-4.8-5.9-4.4-7.7,3.7-16.2,3.9-4.1,7-7.8,7-8.2s-2-3.1-4.4-5.7a87.79,87.79,0,0,1-14.9-21.8c-6.9-14.2-10.7-22.5-10.7-23.4s-2-5.2-4.2-9.1c-.4-.8-1.1-2.2-1.4-3s-1.2-2.9-1.9-4.5c-1.4-3.3-3-10.4-4-17.6-.6-4.7,1.7-12.9,3.6-12.9s14.1,6.5,14.6,7.7a2.22,2.22,0,0,0,1.9,1.3c2.1,0,16.1,9.8,22.6,15.9,5,4.5,5.9,5,6.4,3.5a32,32,0,0,1,1.9-4.9c1.3-2.8,3.4-23.1,3.6-34,.1-10.4-2.3-41.2-3.7-46.6a44.18,44.18,0,0,1-1.4-9c0-1.9-.5-4-1.2-4.7s-1.5-3.3-1.9-5.9c-.6-4.2-8.5-28.4-10.9-33.8a69.11,69.11,0,0,1-4.7-14.5,17.66,17.66,0,0,0-1.9-5.5,8.07,8.07,0,0,1-1.4-4.1,5.1,5.1,0,0,0-1.5-3.4,4.22,4.22,0,0,1-1.5-2.5c0-1.4-6.9-15.4-8.5-17.1a37.29,37.29,0,0,1-2.5-3.5c-2.6-3.9-14.5-17.1-21.4-23.8-5.2-5-7-6.1-7.9-5.2s-.8,1.9.6,4.2a15.25,15.25,0,0,1,1.7,4.1,16,16,0,0,0,1.4,4.1c1.8,4.1,3.9,10.4,6.6,19.7,1.2,4.1,2.6,8.8,3.2,10.5a51.22,51.22,0,0,1,1.8,8.5c.4,3.1,1.1,6.6,1.4,7.8,1.3,4-1.4,13.2-6.2,21.4-1.6,2.7-1.5,2.8,3.4,8,9.7,10.4,16.4,21.3,16.4,26.8,0,3.6-3.8,10-7.3,12.2a36.79,36.79,0,0,0-4.1,3.3c-1.9,1.9-7.4,5.1-16.3,9.5-6.6,3.2-7.3,4.3-4.8,7.6a7.58,7.58,0,0,1,1.5,3.9,7.58,7.58,0,0,0,1.5,3.9,10.76,10.76,0,0,1,1.5,5.4c0,3.2-.2,3.4-2.7,2.8a63.9,63.9,0,0,0-22.4-2.1,94.76,94.76,0,0,0-14,1.9c-3.8,1.1-4.4,1.7-4.7,4.4a14.21,14.21,0,0,0,1.7,6.8,16.48,16.48,0,0,1,2.1,5.6,9.55,9.55,0,0,0,.9,3.6,82.17,82.17,0,0,1,3.1,9.2c2.1,7,2.8,9.2,6,18a36.54,36.54,0,0,1,1.7,6.2,7.52,7.52,0,0,0,1.9,3.9,4.25,4.25,0,0,1,1.4,3,2.9,2.9,0,0,0,.9,2.3c.9.6,9.6,17.9,13,26a28.8,28.8,0,0,1,2.1,11.5c.1,3.8.7,7.6,1.5,9.1a13.66,13.66,0,0,1,1.5,4.6,5.1,5.1,0,0,0,1.5,3.4,4.57,4.57,0,0,1,1.5,2.9c0,.9,1.8,3.5,4.1,5.6,10.3,10.2,12.1,19.5,6.5,35.5a58.35,58.35,0,0,1-2.6,6.2,7,7,0,0,0-1,3,25,25,0,0,1-2,5.3,22.16,22.16,0,0,0-2,6.1,5.1,5.1,0,0,1-1.5,3.4,4.42,4.42,0,0,0-1.5,2.6c0,2.9-2,1.2-4-3.3-1.5-3.4-2.4-8.4-3.1-17.6-1.1-15.1-2.1-20-4.3-22.2a5.46,5.46,0,0,1-1.6-3.1c0-.8-2.4-4.8-5.2-9-6.2-8.8-8.5-12.3-9.5-14.4a31.12,31.12,0,0,0-3.5-5.1,23.86,23.86,0,0,1-2.8-4.3c0-.7-4-6.7-5.1-7.6-.3-.3-1.9-2.7-3.5-5.3s-3.7-6.1-4.6-7.5a39.31,39.31,0,0,1-2.9-5.2,26.63,26.63,0,0,0-3.5-5.7c-1.3-1.7-2.4-3.5-2.4-4s-3-5.3-6.7-10.8-7.9-11.9-9.5-14.3a44.52,44.52,0,0,1-2.8-4.6c0-.3-2.8-4.7-6.2-10-10.3-15.7-12.8-19.8-12.8-21.1a4.22,4.22,0,0,0-1.5-2.5,4.57,4.57,0,0,1-1.5-2.9,7,7,0,0,0-1.5-3.5,8.23,8.23,0,0,1-1.5-4.1,8.23,8.23,0,0,0-1.5-4.1,11.06,11.06,0,0,1-1.5-5.7,23.79,23.79,0,0,0-1.5-7.4c-2-4.7-2-10.3-.1-10.3,1.4,0,6.4,3,13.9,8.2,4.7,3.3,5.7,2,5.7-7.5,0-4.6.3-10.4.6-12.9.4-3.1.2-4.9-.8-5.9-4.6-4.8-8.9-11.1-8.6-12.6.2-1,2.3-2.5,5.3-3.6a23.6,23.6,0,0,0,6.5-3.3c1.5-1.5,1.6-1.5-8.1-9.9-3.7-3.3-9.9-10.8-9.9-12.1a7.22,7.22,0,0,0-1.7-2.6c-1.4-1.6-1.6-4.4-1.5-21.6.1-15.4.4-20.5,1.6-23.4a23,23,0,0,0,1.6-7.6c0-2.1.5-4.3,1.1-4.9a13.23,13.23,0,0,0,1.9-4.4c1.6-6.5,6.7-18.9,8.1-19.9a7.38,7.38,0,0,0,1.4-3.3C1139.56,74.34,1137.26,75.34,1129,82.64Z" transform="translate(0 0.02)"/><path class="cls-1" d="M974.46,111.74c-2.5,2.1-8.5,9.7-8.5,10.8a5.5,5.5,0,0,1-1.3,2.3c-.7.9-2.4,5-3.7,9.1-2.3,7.1-2.4,8.7-2.2,28.4.3,30.5-1.8,36.9-18.8,57.1-1.4,1.6-7,7.7-12.6,13.5s-12.2,12.9-15,15.7c-5.6,6-7.6,6.4-13.2,3-2.7-1.7-5.9-2.6-11.6-3-4.9-.5-8.6-1.3-9.6-2.2-1.4-1.2-1.9-1.3-2.7-.3-1.6,2-3.3,11.2-3.3,17.8,0,5.5-.3,6.2-4,10.1-2.2,2.3-4,4.8-4,5.6,0,1.5,4,3.3,7.5,3.3A4.12,4.12,0,0,1,875,285c1.2,2.2.3,4.2-3.8,8.5a21.3,21.3,0,0,0-3.1,4.3c-1.6,2.8-.6,4,6.3,8.1,5.7,3.4,5.3,3.2,18.5,11.7,15.2,9.8,19.3,13,26.2,19.9,4.9,5,6.1,6.7,5,7.3-3,1.9-21.6,3.4-33.6,2.7-49.1-2.9-64-3.2-65.2-1.7-1,1.1-1.3,7.7-1.3,25,0,12.9-.5,29.6-1,37s-1.5,20.8-2,29.6c-.8,15.5-2.2,23.8-5,30-1.7,4-1.5,20.1.5,29.5a75.22,75.22,0,0,1,1.5,12c0,8.2,2.8,7.5,4.2-1,1.3-8.2,3.1-15.5,4.4-18.7a16.85,16.85,0,0,0,1.4-6,9,9,0,0,1,1.5-4.7A8.94,8.94,0,0,0,831,474a8.63,8.63,0,0,1,1.5-4.5,7.64,7.64,0,0,0,1.5-3.7c0-2.1,3.9-10.9,4.8-10.9s4.2,7.3,4.2,9.4a14.86,14.86,0,0,0,1.4,4.9c1.4,3.2,2.5,7.3,5.1,19.7.8,3.6,1.9,8.5,2.5,11s1.5,20.7,2,40.5c1.2,47.7,1.9,54.5,6.6,69.6a31.23,31.23,0,0,1,1.4,6.6,7.91,7.91,0,0,0,1.5,3.9,7.9,7.9,0,0,1,1.5,4.1c0,2.1,5.8,14,8.4,17.3,1.9,2.4,10.6,20,10.6,21.4a4.16,4.16,0,0,0,1.5,2.6,4.57,4.57,0,0,1,1.5,2.9,22.56,22.56,0,0,0,2,5.6,25,25,0,0,1,2,5.3,1,1,0,0,0,1.3,1c1.9-.7,2-8.3.2-17.2a210.55,210.55,0,0,1-2.6-22.6c-.5-8-1.2-17.5-1.5-21.3-.7-6.6,1.9-26.9,3.7-29.2a25.7,25.7,0,0,0,1.5-6.5c1-7.9,5.7-17.8,8.6-18.4,1.3-.2,5-.9,8.3-1.6a159.49,159.49,0,0,1,17.5-2c6.3-.5,12.8-1.3,14.3-1.9a22.1,22.1,0,0,1,6.5-1.1c5.6,0,38.7-6.5,40.7-8a17.63,17.63,0,0,1,4.5-1.5,64,64,0,0,0,10.5-4.2,105.25,105.25,0,0,0,15-8.3c6.2-3.8,7.8-4.8,10-5.9,1.1-.6,3.8-2.2,6-3.6s4.9-2.9,6-3.5,3.4-1.9,5-3,8.3-4.5,14.8-7.7,11.6-6.2,11.4-6.8c-.5-1.4-25.1-1.8-36.7-.5-16.5,1.8-29,4.1-41.6,7.6a37.38,37.38,0,0,1-8,1.4,14.52,14.52,0,0,0-5.4,1.5,18.36,18.36,0,0,1-7.5,1.5c-2.7,0-5.9.7-6.9,1.5-1.2.9-4.2,1.5-7.1,1.5a42.5,42.5,0,0,0-10.1,1.5c-6.6,2-24.2,2-28.1.1-1.5-.8-3.5-1.8-4.3-2.1a32.75,32.75,0,0,1-4.5-2.5,42.91,42.91,0,0,0-5.3-3c-3.3-1.4-4.2-4.9-4.2-17.2,0-12.8,1.9-22.5,6.2-31.7,3.1-6.7,2.9-8-1.7-8.1a11.34,11.34,0,0,1-4.5-1.5,14.14,14.14,0,0,0-5.1-1.5,5.79,5.79,0,0,1-3.9-1.5,6.06,6.06,0,0,0-4-1.5c-3.1,0-15.9-6.3-17.7-8.7-3.1-4.1,6.4-6,13.3-2.7,4.7,2.3,5.3,1.1,1.7-3.4-3.8-4.8-10.6-15.2-11.8-18.2-.4-.8-1.1-2.2-1.6-3a21,21,0,0,1-1.5-3c-1.1-3-4.6-10.6-6-13.2a11,11,0,0,1-1.4-4.1,4.37,4.37,0,0,0-1.5-2.7c-1.7-1.4-2-6.7-.4-7.2.6-.2,5.5.2,10.8.8s13.7,1.8,18.6,2.4,10.9,1.5,13.1,2a109.86,109.86,0,0,0,12.5,1.5c4.6.4,10.5,1.1,13,1.6a132.64,132.64,0,0,0,15,1.7c9.3.6,10.4.9,10.1,2.5a9.32,9.32,0,0,1-2,3.6c-17.5,18.6-24.8,26.5-25,27.2-.6,1.6,3.8.9,8.1-1.2a180.41,180.41,0,0,0,21.2-13.9c6.9-5.7,19.3-18.9,22.9-24.2,3.1-4.7,4.6-6,7.7-6.8,6.6-1.8,6-2.8-8.6-14.5-12.3-9.8-28.5-26-32.8-32.7-2-3.1-5.5-9.1-7.8-13.5s-5.1-9.6-6.4-11.8A22.49,22.49,0,0,1,931,305a6.53,6.53,0,0,0-1.7-3.3c-1-1.2-1.7-3.7-1.7-6.8-.1-6.3.9-7.3,13.4-13.4a40,40,0,0,0,7.6-5.4c2.3-2,7.6-6.8,11.9-10.6,6.2-5.7,8-6.8,9.3-5.9a5.55,5.55,0,0,1,2,3.6,6.47,6.47,0,0,0,1.8,3.7,5.94,5.94,0,0,1,1.4,3.9,9.34,9.34,0,0,0,1.5,4.7,7.9,7.9,0,0,1,1.5,4.1,17.06,17.06,0,0,0,1.4,5.5c1.6,3.7,3.2,11.1,4.7,20.8.5,3.6,1.5,8.5,2.1,11s1.3,10.9,1.6,18.8c.3,11.3.7,14.5,1.9,14.9,1.7.7,7.3-4.4,7.3-6.7a7.53,7.53,0,0,1,1.4-3.5c.7-1.1,1.6-6.2,2-11.5a108.8,108.8,0,0,1,1.6-13.5c.5-2.2,1-11.3,1-20.3,0-9.2.6-20.5,1.5-26.3,1.5-9.6,1.4-10.6-.6-21.7-2.8-14.8-3.2-20.7-2.1-25.7a18.76,18.76,0,0,0-.5-9,43.39,43.39,0,0,1-1.3-8,9.17,9.17,0,0,0-1.5-4.9,10.14,10.14,0,0,1-1.5-5,9.53,9.53,0,0,0-1.5-5,12.29,12.29,0,0,1-1.5-6,17.37,17.37,0,0,0-1.5-6.6,14.14,14.14,0,0,1-1.5-5.1,8.94,8.94,0,0,0-1.5-4.5,7,7,0,0,1-1.5-3.2,14.55,14.55,0,0,0-1.4-4.5c-.8-1.8-2.4-6.6-3.6-10.7s-2.9-9.3-3.7-11.4c-1-2.8-1.4-7.4-1.2-15.5.1-6.4-.2-11.6-.7-11.8A4.92,4.92,0,0,0,974.46,111.74Z" transform="translate(0 0.02)"/><path class="cls-1" d="M843.56,118.64c-.3,4.2-.6,11.1-.6,15.4a68.11,68.11,0,0,1-1.5,13.6,53.79,53.79,0,0,0-1.5,10.9,28.74,28.74,0,0,1-1.1,8.1,55.47,55.47,0,0,0-1.9,8.8c-1.3,8.8-4,19.9-5.1,21a4.36,4.36,0,0,0-.9,2.7c0,4.4-5.1,12.1-18.9,28.8-10.1,12.2-14.6,16.9-16.3,17a3.52,3.52,0,0,0-2.5,1.2q-1.35,2.25-7.8,5.1a17.7,17.7,0,0,0-4.4,3,3.33,3.33,0,0,1-3.7,1.1,4.81,4.81,0,0,0-3.8.5c-.7.6-3.5,1.4-6.2,1.7s-5.5,1.1-6.2,1.7-7.4,1.3-14.8,1.5c-11.8.4-13.4.7-13.4,2.2a8,8,0,0,0,2.1,4.1,110,110,0,0,1,15.5,22.9c2.4,4.8,4.4,9.4,4.4,10.2a25,25,0,0,0,2,5.3c1.6,3.2,1.9,6.2,1.9,15.5s-.3,12.3-1.9,15.5a36.78,36.78,0,0,0-2,4.7c-.1,2.4-6.5,10.7-9.2,12.1-4.3,2.1-18.7,8.6-21.3,9.6-7.3,3-23.5,11.8-23.5,12.8s2.6,6.9,6,13.5c2,3.8,3.1,18.8,2,27.1-.7,4.5-1.5,8.6-1.9,9.2s-1.9,4.4-3.2,8.5a55.09,55.09,0,0,1-3.6,9.5,9,9,0,0,0-1.3,4.1,5.1,5.1,0,0,1-1.5,3.4,5.1,5.1,0,0,0-1.5,3.4,8.56,8.56,0,0,1-1.5,4.2,7,7,0,0,0-1.5,3.2c0,1.5-2.1,6.7-4.6,11.5a13.15,13.15,0,0,0-1.4,4.5c0,2.8-4.9,12.4-6,11.7a2.56,2.56,0,0,1-1-1.9,4.16,4.16,0,0,0-1.5-2.6,4.57,4.57,0,0,1-1.5-3,4.57,4.57,0,0,0-1.5-3,5.36,5.36,0,0,1-1.5-3.5,5.36,5.36,0,0,0-1.5-3.5,4.37,4.37,0,0,1-1.5-2.7c0-2.7-4.3-10.8-7-13.3-3.2-2.9-9-12.1-9-14.2a4.35,4.35,0,0,0-1.5-2.8,4.37,4.37,0,0,1-1.5-2.7c0-1.8-12.3-22.6-15.4-26.3-1.2-1.4-3.5-4.4-5.2-6.8s-3.3-4.9-3.8-5.6c-.6-.9.1-2.8,2.2-6a33.19,33.19,0,0,0,3.2-5.2,12.58,12.58,0,0,1,2-3.1c2.6-3.3,2.6-6.3,0-6.3-3,0-18-6.8-18-8.2,0-.3-1-1-2.2-1.4-3.7-1.1-8.6-8.4-18.3-27.2-3.1-5.9-6-11.1-6.5-11.6a4.27,4.27,0,0,1-1-2.7,4.57,4.57,0,0,0-1.5-2.9,4.82,4.82,0,0,1-1.5-3.2,9.55,9.55,0,0,0-1.6-4.3,8.27,8.27,0,0,1-1.2-4.7c.3-2.1,1.1-2.4,8.8-3.3,4.7-.6,9.9-1.8,11.6-2.7,2.8-1.6,8.5-7.7,10.9-11.8.5-1,2.3-3.9,3.8-6.5,1.8-2.8,2.6-5.3,2.2-6.5-.3-1-3.6-4.1-7.3-6.9-9.2-6.8-24.7-23-30.7-32.1-5.6-8.5-15.4-27.7-15.5-30.1a13.06,13.06,0,0,0-1.5-4.5,16.11,16.11,0,0,1-1.5-6.1,49,49,0,0,0-1.5-9c-1.7-6.4-1.9-18.2-.5-28.8,2.3-17.2,2.9-20.8,3.9-21.8,1.4-1.4,1.4-6.4.1-7.2-.6-.3-1.3.2-1.7,1.2a26.2,26.2,0,0,1-3.2,5.3,92.8,92.8,0,0,0-7,12.3c-2.4,4.8-4.8,9-5.2,9.3a3.15,3.15,0,0,0-.9,2.4,2.84,2.84,0,0,1-.8,2.2c-1,.3-8.2,12.5-8.2,13.7a40,40,0,0,1-3,6.6,50.8,50.8,0,0,0-3,6.7c0,1.1-5.4,13.6-8.7,20a14.78,14.78,0,0,0-1.3,5.5,14.56,14.56,0,0,1-1.5,5.3c-2.1,3.7-2.1,33.6,0,38.7a22,22,0,0,1,1.5,7c0,4.6,4.5,12.1,7.7,12.9a65.08,65.08,0,0,1,8,3.5c3.1,1.6,6.2,2.9,6.8,2.9a5.52,5.52,0,0,1,2.9,1.9c1.9,2.1,1.5,5-.8,7.4a18.8,18.8,0,0,0-2.7,3.8c-2.4,4.5-10.2,17.4-10.8,17.9a37.43,37.43,0,0,0-3,5c-1.4,2.5-5.3,8.9-8.8,14.3s-6.2,10.5-5.9,11.2,2.7,1.5,5.8,1.8a71.35,71.35,0,0,1,9.8,1.7c2.5.6,7.2,1.9,10.5,2.7s7.6,2.1,9.5,2.8,8.7,2.9,15,5,13.2,4.4,15.3,5.3c3.9,1.7,4.8,4.1,2.2,6.2a4.22,4.22,0,0,0-1.5,2.5c0,.7-1.3,4-3,7.3a61.72,61.72,0,0,0-3,6.9,13.27,13.27,0,0,1-1.4,3.5,28.34,28.34,0,0,0-2.1,6,20.18,20.18,0,0,1-2.1,5.3c-1.9,2.6-1.8,9.4,0,10.1.8.3,2.8-.1,4.3-.9a86.72,86.72,0,0,1,8.8-3.8c3.3-1.2,7.5-2.9,9.3-3.8,3.2-1.6,3.4-1.5,5.2.9a14.43,14.43,0,0,1,2.5,5.5c1.6,7.8,10.8,26.2,15.1,30,2.2,1.9,10.4,12.6,10.4,13.5,0,.5,1.3,2.8,2.9,5.2,4.2,6.4,13.1,25.4,13.1,28.1a2.6,2.6,0,0,0,.9,2.1,6.31,6.31,0,0,1,1.5,3.3,73.06,73.06,0,0,0,3.8,9.3c1.7,3.6,3.7,8,4.5,9.7s1.9,4.8,2.6,6.5a103.78,103.78,0,0,1,5.4,16.3c3.6,14.9,4.4,18.4,5.4,24,.6,3.3,1.7,8.2,2.5,10.9a39,39,0,0,1,1.4,9.5,30.41,30.41,0,0,0,1.5,8.6c.8,2.2,1.4,7.4,1.5,11.5a53.89,53.89,0,0,0,1.5,12.4c.9,2.8,1.5,9,1.5,14.5a134.36,134.36,0,0,0,1.5,17.6,122.33,122.33,0,0,1,1.5,18c0,5.5.5,14.5,1,20s1.3,14,1.6,19c.6,9.1.9,10.5,2.3,10.5.9,0,5.1-8.6,5.1-10.4a12.59,12.59,0,0,1,1.5-4.2,13.76,13.76,0,0,0,1.5-4.5,7.84,7.84,0,0,1,1.5-3.5,9.46,9.46,0,0,0,1.5-4.9,9.17,9.17,0,0,1,1.5-4.9,8.23,8.23,0,0,0,1.5-4.1,8.23,8.23,0,0,1,1.5-4.1,7.58,7.58,0,0,0,1.5-3.9,14.11,14.11,0,0,1,1.5-4.9,13.78,13.78,0,0,0,1.5-5.2,20.85,20.85,0,0,1,1.4-6.1,147.55,147.55,0,0,0,5.2-22.3,53.35,53.35,0,0,1,2-8.8A33.33,33.33,0,0,0,715,615a26.24,26.24,0,0,1,1.5-8.4,36.07,36.07,0,0,0,1.5-10.5,50.57,50.57,0,0,1,1.5-11.8,56.44,56.44,0,0,0,1.5-12.9,67.7,67.7,0,0,1,1.5-13.8,67.92,67.92,0,0,0,1.5-13.5,66.23,66.23,0,0,1,1.5-13.5,51.48,51.48,0,0,0,1.5-10.1c0-7,4.6-19.8,10-28.1,1.1-1.7,2.3-3.7,2.7-4.5a31.12,31.12,0,0,1,3.5-5.1,23.86,23.86,0,0,0,2.8-4.3,11,11,0,0,1,1.9-3.4c1-1.5,4-6.1,6.7-10.2,7.1-10.9,18.3-25.6,25.8-33.7,3.6-3.9,6.6-7.6,6.6-8.3s-1.1-2.1-2.5-3.2c-2.9-2.2-6.5-8.7-6.5-11.6a4.3,4.3,0,0,0-1.4-3.1c-1.1-1-1.7-.6-3,2a15.07,15.07,0,0,0-1.6,4.9c0,2-2.6,3.4-3.6,1.9-1.1-1.9-.6-19.6.7-22a26.35,26.35,0,0,0,2-5.4c1.2-4.5,6.8-20.6,8.4-24.2a16.28,16.28,0,0,0,1.5-5.5,13.92,13.92,0,0,1,1.5-4.8c.8-1.4,1.4-4.9,1.5-7.9a94.67,94.67,0,0,1,2.9-20.1c.8-3,5.4-4.8,16-6,10.9-1.2,11.1-1.8,5-21.6-1.4-4.7-1.1-6.2,1.6-7.6,7.4-4,34-21.3,36.5-23.8a45.24,45.24,0,0,1,4.6-3.1c6.7-4.4,13.8-11,14.8-13.8a18.42,18.42,0,0,1,1.6-3.6,15.16,15.16,0,0,0,1.6-5,37.87,37.87,0,0,1,2.1-7.2,23.52,23.52,0,0,0,1.3-7.1c0-2.1.6-4.4,1.3-5,2-2.1,2.3-32,.3-38.2a32.13,32.13,0,0,1-1.6-6.5c0-3.1-6.5-16.8-9.5-20.2-4.1-4.6-8.2-14.6-9.5-23.2-.5-2.9-1.3-5.8-1.9-6.4s-1.1-3-1.1-5.3c0-3.9-2.9-9.4-4.9-9.4C844.56,110.94,844,114.34,843.56,118.64Z" transform="translate(0 0.02)"/></svg>